{
  "source": "C:\\Users\\Peter\\Desktop\\stuff\\MIUN\\quantitative_research\\video_compression\\videos\\BVI-HD\\BVI-HD_CDVL_videos\\ORIG\\SmokeGuns_1920x1080_60fps.mp4",
  "output": "C:\\Users\\Peter\\Desktop\\stuff\\MIUN\\quantitative_research\\video_compression\\compressed_videos\\BVI-HD\\hevc\\1\\SmokeGuns_1920x1080_60fps_hevc.mp4",
  "codec": "hevc",
  "ok": "Input #0, mov,mp4,m4a,3gp,3g2,mj2, from 'C:\\Users\\Peter\\Desktop\\stuff\\MIUN\\quantitative_research\\video_compression\\videos\\BVI-HD\\BVI-HD_CDVL_videos\\ORIG\\SmokeGuns_1920x1080_60fps.mp4':\n  Metadata:\n    major_brand     : isom\n    minor_version   : 512\n    compatible_brands: isomiso2avc1mp41\n    encoder         : Lavf54.28.101\n  Duration: 00:00:05.00, start: 0.000000, bitrate: 384353 kb/s\n  Stream #0:0[0x1](und): Video: h264 (High 4:4:4 Predictive) (avc1 / 0x31637661), yuv420p(progressive), 1920x1080, 384348 kb/s, 60 fps, 60 tbr, 60 tbn (default)\n    Metadata:\n      handler_name    : VideoHandler\n      vendor_id       : [0][0][0][0]\n[out#0/mp4 @ 000002a9ac21acc0] Codec AVOption b:a (set bitrate (in bits/s)) has not been used for any stream. The most likely reason is either wrong type (e.g. a video option with no video streams) or that it is a private option of some decoder which was not actually used for any stream.\nStream mapping:\n  Stream #0:0 -> #0:0 (h264 (native) -> hevc (libx265))\nPress [q] to stop, [?] for help\n[libx265 @ 000002a9ac7f0a80] Unknown option: \"aq-mode.\nx265 [info]: HEVC encoder version 4.1+190-8f11c33ac\nx265 [info]: build info [Windows][GCC 15.1.0][64 bit] 10bit\nx265 [info]: using cpu capabilities: MMX2 SSE2Fast LZCNT SSSE3 SSE4.2 AVX FMA3 BMI2 AVX2\nx265 [info]: Main 10 profile, Level-4.1 (Main tier)\nx265 [info]: Thread pool created using 12 threads\nx265 [info]: Slices                              : 1\nx265 [info]: frame threads / pool features       : 3 / wpp(17 rows)\nx265 [info]: Coding QT: max CU size, min CU size : 64 / 8\nx265 [info]: Residual QT: max TU size, max depth : 32 / 1 inter / 1 intra\nx265 [info]: ME / range / subpel / merge         : star / 57 / 3 / 3\nx265 [info]: Keyframe min / max / scenecut / bias  : 25 / 250 / 40 / 5.00 \nx265 [info]: Lookahead / bframes / badapt        : 25 / 4 / 2\nx265 [info]: b-pyramid / weightp / weightb       : 1 / 1 / 0\nx265 [info]: References / ref-limit  cu / depth  : 4 / on / on\nx265 [info]: AQ: mode / str / qg-size / cu-tree  : 2 / 1.0 / 32 / 1\nx265 [info]: Rate Control / qCompress            : ABR-1000 kbps / 0.60\nx265 [info]: VBV/HRD buffer / max-rate / init    : 1000 / 1000 / 0.750\nx265 [info]: tools: rect limit-modes rd=4 psy-rd=2.00 rdoq=2 psy-rdoq=1.00\nx265 [info]: tools: rskip mode=1 signhide tmvp strong-intra-smoothing lslices=4\nx265 [info]: tools: deblock sao dhdr10-info\nOutput #0, mp4, to 'C:\\Users\\Peter\\Desktop\\stuff\\MIUN\\quantitative_research\\video_compression\\compressed_videos\\BVI-HD\\hevc\\1\\SmokeGuns_1920x1080_60fps_hevc.mp4':\n  Metadata:\n    major_brand     : isom\n    minor_version   : 512\n    compatible_brands: isomiso2avc1mp41\n    encoder         : Lavf62.3.100\n  Stream #0:0(und): Video: hevc (hev1 / 0x31766568), yuv420p10le(tv, progressive), 1920x1080, q=2-31, 1000 kb/s, 60 fps, 15360 tbn (default)\n    Metadata:\n      encoder         : Lavc62.11.100 libx265\n      handler_name    : VideoHandler\n      vendor_id       : [0][0][0][0]\n    Side data:\n      cpb: bitrate max/min/avg: 1000000/0/1000000 buffer size: 1000000 vbv_delay: N/A\nframe=    0 fps=0.0 q=0.0 size=       0KiB time=N/A bitrate=N/A speed=N/A elapsed=0:00:00.51    \nframe=    0 fps=0.0 q=0.0 size=       0KiB time=N/A bitrate=N/A speed=N/A elapsed=0:00:01.09    \nframe=    0 fps=0.0 q=0.0 size=       0KiB time=N/A bitrate=N/A speed=N/A elapsed=0:00:01.70    \nframe=    0 fps=0.0 q=0.0 size=       0KiB time=N/A bitrate=N/A speed=N/A elapsed=0:00:02.32    \nframe=    0 fps=0.0 q=0.0 size=       0KiB time=N/A bitrate=N/A speed=N/A elapsed=0:00:02.94    \nframe=    0 fps=0.0 q=0.0 size=       0KiB time=N/A bitrate=N/A speed=N/A elapsed=0:00:03.50    \nframe=    0 fps=0.0 q=0.0 size=       0KiB time=N/A bitrate=N/A speed=N/A elapsed=0:00:04.04    \nframe=    0 fps=0.0 q=0.0 size=       0KiB time=N/A bitrate=N/A speed=N/A elapsed=0:00:04.59    \nframe=    0 fps=0.0 q=0.0 size=       0KiB time=N/A bitrate=N/A speed=N/A elapsed=0:00:05.15    \nframe=    0 fps=0.0 q=0.0 size=       0KiB time=N/A bitrate=N/A speed=N/A elapsed=0:00:05.68    \nframe=    0 fps=0.0 q=0.0 size=       0KiB time=N/A bitrate=N/A speed=N/A elapsed=0:00:06.22    \nframe=    0 fps=0.0 q=0.0 size=       0KiB time=N/A bitrate=N/A speed=N/A elapsed=0:00:06.75    \nframe=    0 fps=0.0 q=0.0 size=       0KiB time=N/A bitrate=N/A speed=N/A elapsed=0:00:07.27    \nframe=    0 fps=0.0 q=0.0 size=       0KiB time=N/A bitrate=N/A speed=N/A elapsed=0:00:07.85    \nframe=    0 fps=0.0 q=0.0 size=       0KiB time=N/A bitrate=N/A speed=N/A elapsed=0:00:08.43    \nframe=    0 fps=0.0 q=0.0 size=       0KiB time=N/A bitrate=N/A speed=N/A elapsed=0:00:08.99    \nframe=    0 fps=0.0 q=0.0 size=       0KiB time=N/A bitrate=N/A speed=N/A elapsed=0:00:09.56    \nframe=    0 fps=0.0 q=0.0 size=       0KiB time=N/A bitrate=N/A speed=N/A elapsed=0:00:10.07    \nframe=    0 fps=0.0 q=0.0 size=       0KiB time=N/A bitrate=N/A speed=N/A elapsed=0:00:10.61    \nframe=    0 fps=0.0 q=0.0 size=       0KiB time=N/A bitrate=N/A speed=N/A elapsed=0:00:11.13    \nframe=    0 fps=0.0 q=0.0 size=       0KiB time=N/A bitrate=N/A speed=N/A elapsed=0:00:11.66    \nframe=    1 fps=0.1 q=47.4 size=       0KiB time=-00:00:00.01 bitrate=N/A speed=N/A elapsed=0:00:12.23    \nframe=    1 fps=0.1 q=47.4 size=       0KiB time=-00:00:00.01 bitrate=N/A speed=N/A elapsed=0:00:12.83    \nframe=    1 fps=0.1 q=47.4 size=       0KiB time=-00:00:00.01 bitrate=N/A speed=N/A elapsed=0:00:13.41    \nframe=    1 fps=0.1 q=47.4 size=       0KiB time=-00:00:00.01 bitrate=N/A speed=N/A elapsed=0:00:13.97    \nframe=    3 fps=0.2 q=51.0 size=       0KiB time=00:00:00.00 bitrate=N/A speed=   0x elapsed=0:00:14.55    \nframe=    3 fps=0.2 q=51.0 size=       0KiB time=00:00:00.01 bitrate=  21.1kbits/s speed=0.0011x elapsed=0:00:15.13    \nframe=    3 fps=0.2 q=51.0 size=       0KiB time=00:00:00.01 bitrate=  21.1kbits/s speed=0.00106x elapsed=0:00:15.66    \nframe=    3 fps=0.2 q=51.0 size=       0KiB time=00:00:00.01 bitrate=  21.1kbits/s speed=0.00103x elapsed=0:00:16.21    \nframe=    4 fps=0.2 q=51.0 size=       0KiB time=00:00:00.03 bitrate=  10.6kbits/s speed=0.00199x elapsed=0:00:16.73    \nframe=    4 fps=0.2 q=51.0 size=       0KiB time=00:00:00.03 bitrate=  10.6kbits/s speed=0.00193x elapsed=0:00:17.31    \nframe=    4 fps=0.2 q=51.0 size=       0KiB time=00:00:00.03 bitrate=  10.6kbits/s speed=0.00187x elapsed=0:00:17.85    \nframe=    4 fps=0.2 q=51.0 size=       0KiB time=00:00:00.03 bitrate=  10.6kbits/s speed=0.00181x elapsed=0:00:18.41    \nframe=    4 fps=0.2 q=51.0 size=       0KiB time=00:00:00.03 bitrate=  10.6kbits/s speed=0.00176x elapsed=0:00:18.98    \nframe=    4 fps=0.2 q=51.0 size=       0KiB time=00:00:00.03 bitrate=  10.6kbits/s speed=0.0017x elapsed=0:00:19.55    \nframe=    4 fps=0.2 q=51.0 size=       0KiB time=00:00:00.03 bitrate=  10.6kbits/s speed=0.00166x elapsed=0:00:20.09    \nframe=    5 fps=0.2 q=51.0 size=       0KiB time=00:00:00.05 bitrate=   7.0kbits/s speed=0.00242x elapsed=0:00:20.69    \nframe=    5 fps=0.2 q=51.0 size=       0KiB time=00:00:00.05 bitrate=   7.0kbits/s speed=0.00235x elapsed=0:00:21.27    \nframe=    5 fps=0.2 q=51.0 size=       0KiB time=00:00:00.05 bitrate=   7.0kbits/s speed=0.00229x elapsed=0:00:21.85    \nframe=    5 fps=0.2 q=51.0 size=       0KiB time=00:00:00.05 bitrate=   7.0kbits/s speed=0.00223x elapsed=0:00:22.38    \nframe=    5 fps=0.2 q=51.0 size=       0KiB time=00:00:00.05 bitrate=   7.0kbits/s speed=0.00218x elapsed=0:00:22.94    \nframe=    6 fps=0.3 q=51.0 size=       0KiB time=00:00:00.06 bitrate=   5.3kbits/s speed=0.00283x elapsed=0:00:23.52    \nframe=    6 fps=0.2 q=51.0 size=       0KiB time=00:00:00.06 bitrate=   5.3kbits/s speed=0.00277x elapsed=0:00:24.05    \nframe=    6 fps=0.2 q=51.0 size=       0KiB time=00:00:00.06 bitrate=   5.3kbits/s speed=0.00271x elapsed=0:00:24.58    \nframe=    6 fps=0.2 q=51.0 size=       0KiB time=00:00:00.06 bitrate=   5.3kbits/s speed=0.00265x elapsed=0:00:25.13    \nframe=    7 fps=0.3 q=45.0 size=       0KiB time=00:00:00.08 bitrate=   4.2kbits/s speed=0.00325x elapsed=0:00:25.65    \nframe=    7 fps=0.3 q=45.0 size=       0KiB time=00:00:00.08 bitrate=   4.2kbits/s speed=0.00318x elapsed=0:00:26.22    \nframe=    7 fps=0.3 q=45.0 size=       0KiB time=00:00:00.08 bitrate=   4.2kbits/s speed=0.00311x elapsed=0:00:26.76    \nframe=    7 fps=0.3 q=45.0 size=       0KiB time=00:00:00.08 bitrate=   4.2kbits/s speed=0.00305x elapsed=0:00:27.32    \nframe=    7 fps=0.3 q=45.0 size=       0KiB time=00:00:00.08 bitrate=   4.2kbits/s speed=0.00299x elapsed=0:00:27.87    \nframe=    8 fps=0.3 q=47.3 size=       0KiB time=00:00:00.10 bitrate=   3.5kbits/s speed=0.00352x elapsed=0:00:28.39    \nframe=    8 fps=0.3 q=47.3 size=       0KiB time=00:00:00.10 bitrate=   3.5kbits/s speed=0.00346x elapsed=0:00:28.91    \nframe=    9 fps=0.3 q=47.4 size=       0KiB time=00:00:00.10 bitrate=   3.5kbits/s speed=0.00339x elapsed=0:00:29.50    \nframe=    9 fps=0.3 q=47.4 size=       0KiB time=00:00:00.11 bitrate=   3.0kbits/s speed=0.00387x elapsed=0:00:30.12    \nframe=    9 fps=0.3 q=47.4 size=       0KiB time=00:00:00.11 bitrate=   3.0kbits/s speed=0.0038x elapsed=0:00:30.70    \nframe=    9 fps=0.3 q=47.4 size=       0KiB time=00:00:00.11 bitrate=   3.0kbits/s speed=0.00373x elapsed=0:00:31.27    \nframe=    9 fps=0.3 q=47.4 size=       0KiB time=00:00:00.11 bitrate=   3.0kbits/s speed=0.00367x elapsed=0:00:31.81    \nframe=    9 fps=0.3 q=47.4 size=       0KiB time=00:00:00.11 bitrate=   3.0kbits/s speed=0.0036x elapsed=0:00:32.36    \nframe=    9 fps=0.3 q=47.4 size=       0KiB time=00:00:00.11 bitrate=   3.0kbits/s speed=0.00355x elapsed=0:00:32.90    \nframe=    9 fps=0.3 q=47.4 size=       0KiB time=00:00:00.11 bitrate=   3.0kbits/s speed=0.00349x elapsed=0:00:33.43    \nframe=    9 fps=0.3 q=47.4 size=       0KiB time=00:00:00.11 bitrate=   3.0kbits/s speed=0.00343x elapsed=0:00:34.00    \nframe=    9 fps=0.3 q=47.4 size=       0KiB time=00:00:00.11 bitrate=   3.0kbits/s speed=0.00337x elapsed=0:00:34.58    \nframe=   10 fps=0.3 q=47.4 size=       0KiB time=00:00:00.13 bitrate=   2.6kbits/s speed=0.00379x elapsed=0:00:35.14    \nframe=   10 fps=0.3 q=47.4 size=       0KiB time=00:00:00.13 bitrate=   2.6kbits/s speed=0.00374x elapsed=0:00:35.66    \nframe=   11 fps=0.3 q=46.4 size=       0KiB time=00:00:00.15 bitrate=   2.3kbits/s speed=0.00415x elapsed=0:00:36.18    \nframe=   11 fps=0.3 q=46.4 size=       0KiB time=00:00:00.15 bitrate=   2.3kbits/s speed=0.00408x elapsed=0:00:36.72    \nframe=   11 fps=0.3 q=46.4 size=       0KiB time=00:00:00.15 bitrate=   2.3kbits/s speed=0.00402x elapsed=0:00:37.27    \nframe=   12 fps=0.3 q=42.4 size=       0KiB time=00:00:00.16 bitrate=   2.1kbits/s speed=0.00441x elapsed=0:00:37.80    \nframe=   12 fps=0.3 q=42.4 size=       0KiB time=00:00:00.16 bitrate=   2.1kbits/s speed=0.00435x elapsed=0:00:38.32    \nframe=   12 fps=0.3 q=42.4 size=       0KiB time=00:00:00.16 bitrate=   2.1kbits/s speed=0.00429x elapsed=0:00:38.88    \nframe=   12 fps=0.3 q=42.4 size=       0KiB time=00:00:00.16 bitrate=   2.1kbits/s speed=0.00422x elapsed=0:00:39.51    \nframe=   13 fps=0.3 q=47.2 size=       0KiB time=00:00:00.18 bitrate=   1.9kbits/s speed=0.00458x elapsed=0:00:40.06    \nframe=   13 fps=0.3 q=47.2 size=       0KiB time=00:00:00.18 bitrate=   1.9kbits/s speed=0.00451x elapsed=0:00:40.61    \nframe=   14 fps=0.3 q=46.5 size=       0KiB time=00:00:00.20 bitrate=   1.8kbits/s speed=0.00486x elapsed=0:00:41.17    \nframe=   14 fps=0.3 q=46.5 size=       0KiB time=00:00:00.20 bitrate=   1.8kbits/s speed=0.00479x elapsed=0:00:41.72    \nframe=   14 fps=0.3 q=46.5 size=       0KiB time=00:00:00.20 bitrate=   1.8kbits/s speed=0.00474x elapsed=0:00:42.23    \nframe=   15 fps=0.4 q=47.2 size=       0KiB time=00:00:00.21 bitrate=   1.6kbits/s speed=0.00507x elapsed=0:00:42.75    \nframe=   15 fps=0.3 q=47.2 size=       0KiB time=00:00:00.21 bitrate=   1.6kbits/s speed=0.005x elapsed=0:00:43.29    \nframe=   16 fps=0.4 q=46.5 size=       0KiB time=00:00:00.23 bitrate=   1.5kbits/s speed=0.00532x elapsed=0:00:43.86    \nframe=   16 fps=0.4 q=46.5 size=       0KiB time=00:00:00.23 bitrate=   1.5kbits/s speed=0.00525x elapsed=0:00:44.41    \nframe=   17 fps=0.4 q=42.1 size=       0KiB time=00:00:00.25 bitrate=   1.4kbits/s speed=0.00556x elapsed=0:00:44.93    \nframe=   17 fps=0.4 q=42.1 size=       0KiB time=00:00:00.25 bitrate=   1.4kbits/s speed=0.0055x elapsed=0:00:45.45    \nframe=   18 fps=0.4 q=45.8 size=       0KiB time=00:00:00.26 bitrate=   1.3kbits/s speed=0.0058x elapsed=0:00:45.97    \nframe=   18 fps=0.4 q=45.8 size=       0KiB time=00:00:00.26 bitrate=   1.3kbits/s speed=0.00573x elapsed=0:00:46.50    \nframe=   19 fps=0.4 q=46.3 size=       0KiB time=00:00:00.28 bitrate=   1.2kbits/s speed=0.00603x elapsed=0:00:47.02    \nframe=   19 fps=0.4 q=46.3 size=       0KiB time=00:00:00.28 bitrate=   1.2kbits/s speed=0.00596x elapsed=0:00:47.53    \nframe=   19 fps=0.4 q=46.3 size=       0KiB time=00:00:00.28 bitrate=   1.2kbits/s speed=0.0059x elapsed=0:00:48.05    \nframe=   20 fps=0.4 q=45.4 size=       0KiB time=00:00:00.30 bitrate=   1.2kbits/s speed=0.00618x elapsed=0:00:48.57    \nframe=   20 fps=0.4 q=45.4 size=       0KiB time=00:00:00.30 bitrate=   1.2kbits/s speed=0.00611x elapsed=0:00:49.09    \nframe=   21 fps=0.4 q=45.0 size=       0KiB time=00:00:00.31 bitrate=   1.1kbits/s speed=0.00638x elapsed=0:00:49.61    \nframe=   21 fps=0.4 q=45.0 size=       0KiB time=00:00:00.31 bitrate=   1.1kbits/s speed=0.00632x elapsed=0:00:50.13    \nframe=   22 fps=0.4 q=40.9 size=       0KiB time=00:00:00.33 bitrate=   1.1kbits/s speed=0.00658x elapsed=0:00:50.68    \nframe=   22 fps=0.4 q=40.9 size=       0KiB time=00:00:00.33 bitrate=   1.1kbits/s speed=0.00651x elapsed=0:00:51.20    \nframe=   23 fps=0.4 q=44.7 size=       0KiB time=00:00:00.35 bitrate=   1.0kbits/s speed=0.00676x elapsed=0:00:51.73    \nframe=   24 fps=0.5 q=44.9 size=       0KiB time=00:00:00.36 bitrate=   1.0kbits/s speed=0.00702x elapsed=0:00:52.25    \nframe=   24 fps=0.5 q=44.9 size=       0KiB time=00:00:00.36 bitrate=   1.0kbits/s speed=0.00695x elapsed=0:00:52.77    \nframe=   24 fps=0.5 q=44.9 size=       0KiB time=00:00:00.36 bitrate=   1.0kbits/s speed=0.00688x elapsed=0:00:53.30    \nframe=   25 fps=0.5 q=44.1 size=       0KiB time=00:00:00.38 bitrate=   0.9kbits/s speed=0.00712x elapsed=0:00:53.83    \nframe=   26 fps=0.5 q=44.2 size=       0KiB time=00:00:00.40 bitrate=   0.9kbits/s speed=0.00736x elapsed=0:00:54.36    \nframe=   26 fps=0.5 q=44.2 size=       0KiB time=00:00:00.40 bitrate=   0.9kbits/s speed=0.00729x elapsed=0:00:54.90    \nframe=   27 fps=0.5 q=39.9 size=       0KiB time=00:00:00.41 bitrate=   0.8kbits/s speed=0.00752x elapsed=0:00:55.42    \nframe=   27 fps=0.5 q=39.9 size=       0KiB time=00:00:00.41 bitrate=   0.8kbits/s speed=0.00745x elapsed=0:00:55.95    \nframe=   28 fps=0.5 q=43.7 size=       0KiB time=00:00:00.43 bitrate=   0.8kbits/s speed=0.00767x elapsed=0:00:56.47    \nframe=   29 fps=0.5 q=44.5 size=       0KiB time=00:00:00.45 bitrate=   0.8kbits/s speed=0.0079x elapsed=0:00:56.99    \nframe=   29 fps=0.5 q=44.5 size=       0KiB time=00:00:00.45 bitrate=   0.8kbits/s speed=0.00782x elapsed=0:00:57.51    \nframe=   29 fps=0.5 q=44.5 size=       0KiB time=00:00:00.45 bitrate=   0.8kbits/s speed=0.00775x elapsed=0:00:58.06    \nframe=   29 fps=0.5 q=44.5 size=       0KiB time=00:00:00.45 bitrate=   0.8kbits/s speed=0.00768x elapsed=0:00:58.58    \nframe=   30 fps=0.5 q=43.8 size=       0KiB time=00:00:00.46 bitrate=   0.8kbits/s speed=0.0079x elapsed=0:00:59.10    \nframe=   31 fps=0.5 q=44.7 size=       0KiB time=00:00:00.48 bitrate=   0.7kbits/s speed=0.00811x elapsed=0:00:59.62    \nframe=   31 fps=0.5 q=44.7 size=       0KiB time=00:00:00.48 bitrate=   0.7kbits/s speed=0.00804x elapsed=0:01:00.13    \nframe=   32 fps=0.5 q=39.2 size=       0KiB time=00:00:00.50 bitrate=   0.7kbits/s speed=0.00824x elapsed=0:01:00.66    \nframe=   33 fps=0.5 q=43.7 size=       0KiB time=00:00:00.51 bitrate=   0.7kbits/s speed=0.00844x elapsed=0:01:01.18    \nframe=   33 fps=0.5 q=43.7 size=       0KiB time=00:00:00.51 bitrate=   0.7kbits/s speed=0.00837x elapsed=0:01:01.72    \nframe=   34 fps=0.5 q=44.7 size=       0KiB time=00:00:00.53 bitrate=   0.7kbits/s speed=0.00857x elapsed=0:01:02.24    \nframe=   34 fps=0.5 q=44.7 size=       0KiB time=00:00:00.53 bitrate=   0.7kbits/s speed=0.0085x elapsed=0:01:02.77    \nframe=   34 fps=0.5 q=44.7 size=       0KiB time=00:00:00.53 bitrate=   0.7kbits/s speed=0.00842x elapsed=0:01:03.30    \nframe=   35 fps=0.5 q=44.6 size=       0KiB time=00:00:00.55 bitrate=   0.6kbits/s speed=0.00862x elapsed=0:01:03.82    \nframe=   35 fps=0.5 q=44.6 size=       0KiB time=00:00:00.55 bitrate=   0.6kbits/s speed=0.00855x elapsed=0:01:04.34    \nframe=   36 fps=0.6 q=44.9 size=       0KiB time=00:00:00.56 bitrate=   0.6kbits/s speed=0.00874x elapsed=0:01:04.86    \nframe=   36 fps=0.6 q=44.9 size=       0KiB time=00:00:00.56 bitrate=   0.6kbits/s speed=0.00867x elapsed=0:01:05.38    \nframe=   36 fps=0.5 q=44.9 size=       0KiB time=00:00:00.56 bitrate=   0.6kbits/s speed=0.0086x elapsed=0:01:05.89    \nframe=   37 fps=0.6 q=38.9 size=       0KiB time=00:00:00.58 bitrate=   0.6kbits/s speed=0.00878x elapsed=0:01:06.41    \nframe=   38 fps=0.6 q=43.5 size=       0KiB time=00:00:00.60 bitrate=   0.6kbits/s speed=0.00896x elapsed=0:01:06.94    \nframe=   39 fps=0.6 q=44.8 size=       0KiB time=00:00:00.61 bitrate=   0.6kbits/s speed=0.00914x elapsed=0:01:07.46    \nframe=   40 fps=0.6 q=43.7 size=       0KiB time=00:00:00.63 bitrate=   0.6kbits/s speed=0.00931x elapsed=0:01:08.00    \nframe=   40 fps=0.6 q=43.7 size=       0KiB time=00:00:00.63 bitrate=   0.6kbits/s speed=0.00924x elapsed=0:01:08.52    \nframe=   40 fps=0.6 q=43.7 size=       0KiB time=00:00:00.63 bitrate=   0.6kbits/s speed=0.00917x elapsed=0:01:09.07    \nframe=   41 fps=0.6 q=44.0 size=       0KiB time=00:00:00.65 bitrate=   0.5kbits/s speed=0.00934x elapsed=0:01:09.59    \nframe=   41 fps=0.6 q=44.0 size=       0KiB time=00:00:00.65 bitrate=   0.5kbits/s speed=0.00927x elapsed=0:01:10.12    \nframe=   42 fps=0.6 q=38.4 size=       0KiB time=00:00:00.66 bitrate=   0.5kbits/s speed=0.00944x elapsed=0:01:10.64    \nframe=   43 fps=0.6 q=43.3 size=       0KiB time=00:00:00.68 bitrate=   0.5kbits/s speed=0.0096x elapsed=0:01:11.16    \nframe=   43 fps=0.6 q=43.3 size=       0KiB time=00:00:00.68 bitrate=   0.5kbits/s speed=0.00953x elapsed=0:01:11.70    \nframe=   43 fps=0.6 q=43.3 size=       0KiB time=00:00:00.68 bitrate=   0.5kbits/s speed=0.00946x elapsed=0:01:12.24    \nframe=   43 fps=0.6 q=43.3 size=       0KiB time=00:00:00.68 bitrate=   0.5kbits/s speed=0.00939x elapsed=0:01:12.79    \nframe=   44 fps=0.6 q=43.6 size=       0KiB time=00:00:00.70 bitrate=   0.5kbits/s speed=0.00955x elapsed=0:01:13.31    \nframe=   44 fps=0.6 q=43.6 size=       0KiB time=00:00:00.70 bitrate=   0.5kbits/s speed=0.00948x elapsed=0:01:13.82    \nframe=   44 fps=0.6 q=43.6 size=       0KiB time=00:00:00.70 bitrate=   0.5kbits/s speed=0.00941x elapsed=0:01:14.35    \nframe=   44 fps=0.6 q=43.6 size=       0KiB time=00:00:00.70 bitrate=   0.5kbits/s speed=0.00935x elapsed=0:01:14.88    \nframe=   44 fps=0.6 q=43.6 size=       0KiB time=00:00:00.70 bitrate=   0.5kbits/s speed=0.00928x elapsed=0:01:15.40    \nframe=   44 fps=0.6 q=43.6 size=       0KiB time=00:00:00.70 bitrate=   0.5kbits/s speed=0.00922x elapsed=0:01:15.94    \nframe=   45 fps=0.6 q=43.5 size=       0KiB time=00:00:00.71 bitrate=   0.5kbits/s speed=0.00937x elapsed=0:01:16.47    \nframe=   45 fps=0.6 q=43.5 size=       0KiB time=00:00:00.71 bitrate=   0.5kbits/s speed=0.00931x elapsed=0:01:16.99    \nframe=   45 fps=0.6 q=43.5 size=       0KiB time=00:00:00.71 bitrate=   0.5kbits/s speed=0.00924x elapsed=0:01:17.54    \nframe=   46 fps=0.6 q=43.7 size=       0KiB time=00:00:00.73 bitrate=   0.5kbits/s speed=0.00939x elapsed=0:01:18.06    \nframe=   46 fps=0.6 q=43.7 size=       0KiB time=00:00:00.73 bitrate=   0.5kbits/s speed=0.00933x elapsed=0:01:18.60    \nframe=   47 fps=0.6 q=38.3 size=       0KiB time=00:00:00.75 bitrate=   0.5kbits/s speed=0.00947x elapsed=0:01:19.15    \nframe=   47 fps=0.6 q=38.3 size=       0KiB time=00:00:00.75 bitrate=   0.5kbits/s speed=0.00941x elapsed=0:01:19.67    \nframe=   48 fps=0.6 q=42.5 size=       0KiB time=00:00:00.76 bitrate=   0.5kbits/s speed=0.00956x elapsed=0:01:20.19    \nframe=   48 fps=0.6 q=42.5 size=       0KiB time=00:00:00.76 bitrate=   0.5kbits/s speed=0.0095x elapsed=0:01:20.72    \nframe=   48 fps=0.6 q=42.5 size=       0KiB time=00:00:00.76 bitrate=   0.5kbits/s speed=0.00944x elapsed=0:01:21.24    \nframe=   49 fps=0.6 q=43.6 size=       0KiB time=00:00:00.78 bitrate=   0.4kbits/s speed=0.00958x elapsed=0:01:21.76    \nframe=   49 fps=0.6 q=43.6 size=       0KiB time=00:00:00.78 bitrate=   0.4kbits/s speed=0.00952x elapsed=0:01:22.27    \nframe=   49 fps=0.6 q=43.6 size=       0KiB time=00:00:00.78 bitrate=   0.4kbits/s speed=0.00946x elapsed=0:01:22.82    \nframe=   49 fps=0.6 q=43.6 size=       0KiB time=00:00:00.78 bitrate=   0.4kbits/s speed=0.00939x elapsed=0:01:23.41    \nframe=   49 fps=0.6 q=43.6 size=       0KiB time=00:00:00.78 bitrate=   0.4kbits/s speed=0.00933x elapsed=0:01:23.96    \nframe=   49 fps=0.6 q=43.6 size=       0KiB time=00:00:00.78 bitrate=   0.4kbits/s speed=0.00927x elapsed=0:01:24.49    \nframe=   49 fps=0.6 q=43.6 size=       0KiB time=00:00:00.78 bitrate=   0.4kbits/s speed=0.00921x elapsed=0:01:25.02    \nframe=   50 fps=0.6 q=42.6 size=       0KiB time=00:00:00.80 bitrate=   0.4kbits/s speed=0.00935x elapsed=0:01:25.54    \nframe=   50 fps=0.6 q=42.6 size=       0KiB time=00:00:00.80 bitrate=   0.4kbits/s speed=0.00929x elapsed=0:01:26.06    \nframe=   51 fps=0.6 q=42.6 size=       0KiB time=00:00:00.80 bitrate=   0.4kbits/s speed=0.00924x elapsed=0:01:26.60    \nframe=   51 fps=0.6 q=42.6 size=       0KiB time=00:00:00.81 bitrate=   0.4kbits/s speed=0.00937x elapsed=0:01:27.17    \nframe=   52 fps=0.6 q=37.7 size=       0KiB time=00:00:00.83 bitrate=   0.4kbits/s speed=0.0095x elapsed=0:01:27.68    \nframe=   53 fps=0.6 q=42.4 size=       0KiB time=00:00:00.85 bitrate=   0.4kbits/s speed=0.00964x elapsed=0:01:28.20    \nframe=   53 fps=0.6 q=42.4 size=       0KiB time=00:00:00.85 bitrate=   0.4kbits/s speed=0.00958x elapsed=0:01:28.74    \nframe=   54 fps=0.6 q=42.9 size=       0KiB time=00:00:00.86 bitrate=   0.4kbits/s speed=0.00971x elapsed=0:01:29.26    \nframe=   54 fps=0.6 q=42.9 size=       0KiB time=00:00:00.86 bitrate=   0.4kbits/s speed=0.00965x elapsed=0:01:29.78    \nframe=   54 fps=0.6 q=42.9 size=       0KiB time=00:00:00.86 bitrate=   0.4kbits/s speed=0.0096x elapsed=0:01:30.31    \nframe=   55 fps=0.6 q=43.5 size=       0KiB time=00:00:00.88 bitrate=   0.4kbits/s speed=0.00972x elapsed=0:01:30.83    \nframe=   56 fps=0.6 q=43.7 size=       0KiB time=00:00:00.90 bitrate=   0.4kbits/s speed=0.00985x elapsed=0:01:31.35    \nframe=   56 fps=0.6 q=43.7 size=       0KiB time=00:00:00.90 bitrate=   0.4kbits/s speed=0.0098x elapsed=0:01:31.85    \nframe=   57 fps=0.6 q=37.5 size=       0KiB time=00:00:00.91 bitrate=   0.4kbits/s speed=0.00992x elapsed=0:01:32.37    \nframe=   57 fps=0.6 q=37.5 size=       0KiB time=00:00:00.91 bitrate=   0.4kbits/s speed=0.00987x elapsed=0:01:32.91    \nframe=   57 fps=0.6 q=37.5 size=       0KiB time=00:00:00.91 bitrate=   0.4kbits/s speed=0.00981x elapsed=0:01:33.43    \nframe=   57 fps=0.6 q=37.5 size=       0KiB time=00:00:00.91 bitrate=   0.4kbits/s speed=0.00976x elapsed=0:01:33.95    \nframe=   57 fps=0.6 q=37.5 size=       0KiB time=00:00:00.91 bitrate=   0.4kbits/s speed=0.0097x elapsed=0:01:34.49    \nframe=   58 fps=0.6 q=42.4 size=       0KiB time=00:00:00.93 bitrate=   0.4kbits/s speed=0.00982x elapsed=0:01:35.03    \nframe=   58 fps=0.6 q=42.4 size=       0KiB time=00:00:00.93 bitrate=   0.4kbits/s speed=0.00976x elapsed=0:01:35.58    \nframe=   58 fps=0.6 q=42.4 size=       0KiB time=00:00:00.93 bitrate=   0.4kbits/s speed=0.00971x elapsed=0:01:36.13    \nframe=   59 fps=0.6 q=43.6 size=       0KiB time=00:00:00.95 bitrate=   0.4kbits/s speed=0.00983x elapsed=0:01:36.64    \nframe=   59 fps=0.6 q=43.6 size=       0KiB time=00:00:00.95 bitrate=   0.4kbits/s speed=0.00978x elapsed=0:01:37.17    \nframe=   59 fps=0.6 q=43.6 size=       0KiB time=00:00:00.95 bitrate=   0.4kbits/s speed=0.00972x elapsed=0:01:37.69    \nframe=   60 fps=0.6 q=42.7 size=       0KiB time=00:00:00.96 bitrate=   0.4kbits/s speed=0.00984x elapsed=0:01:38.20    \nframe=   60 fps=0.6 q=42.7 size=       0KiB time=00:00:00.96 bitrate=   0.4kbits/s speed=0.00979x elapsed=0:01:38.72    \nframe=   62 fps=0.6 q=37.6 size=       0KiB time=00:00:01.00 bitrate=   0.4kbits/s speed=0.0101x elapsed=0:01:39.24    \nframe=   63 fps=0.6 q=42.2 size=       0KiB time=00:00:01.01 bitrate=   0.3kbits/s speed=0.0102x elapsed=0:01:39.75    \nframe=   64 fps=0.6 q=43.3 size=       0KiB time=00:00:01.03 bitrate=   0.3kbits/s speed=0.0103x elapsed=0:01:40.26    \nframe=   64 fps=0.6 q=43.3 size=       0KiB time=00:00:01.03 bitrate=   0.3kbits/s speed=0.0103x elapsed=0:01:40.78    \nframe=   64 fps=0.6 q=43.3 size=       0KiB time=00:00:01.03 bitrate=   0.3kbits/s speed=0.0102x elapsed=0:01:41.30    \nframe=   66 fps=0.6 q=43.6 size=       0KiB time=00:00:01.06 bitrate=   0.3kbits/s speed=0.0105x elapsed=0:01:41.81    \nframe=   67 fps=0.7 q=38.3 size=       0KiB time=00:00:01.08 bitrate=   0.3kbits/s speed=0.0106x elapsed=0:01:42.33    \nframe=   68 fps=0.7 q=42.3 size=       0KiB time=00:00:01.10 bitrate=   0.3kbits/s speed=0.0107x elapsed=0:01:42.84    \nframe=   69 fps=0.7 q=43.4 size=       0KiB time=00:00:01.11 bitrate=   0.3kbits/s speed=0.0108x elapsed=0:01:43.35    \nframe=   69 fps=0.7 q=43.4 size=       0KiB time=00:00:01.11 bitrate=   0.3kbits/s speed=0.0107x elapsed=0:01:43.87    \nframe=   70 fps=0.7 q=42.6 size=       0KiB time=00:00:01.13 bitrate=   0.3kbits/s speed=0.0109x elapsed=0:01:44.39    \nframe=   71 fps=0.7 q=42.8 size=       0KiB time=00:00:01.15 bitrate=   0.3kbits/s speed=0.011x elapsed=0:01:44.91    \nframe=   73 fps=0.7 q=41.4 size=       0KiB time=00:00:01.18 bitrate=   0.3kbits/s speed=0.0112x elapsed=0:01:45.42    \nframe=   74 fps=0.7 q=42.6 size=       0KiB time=00:00:01.20 bitrate=   0.3kbits/s speed=0.0113x elapsed=0:01:45.93    \nframe=   74 fps=0.7 q=42.6 size=       0KiB time=00:00:01.20 bitrate=   0.3kbits/s speed=0.0113x elapsed=0:01:46.45    \nframe=   75 fps=0.7 q=42.5 size=       0KiB time=00:00:01.21 bitrate=   0.3kbits/s speed=0.0114x elapsed=0:01:46.96    \nframe=   75 fps=0.7 q=42.5 size=       0KiB time=00:00:01.21 bitrate=   0.3kbits/s speed=0.0113x elapsed=0:01:47.48    \nframe=   75 fps=0.7 q=42.5 size=       0KiB time=00:00:01.21 bitrate=   0.3kbits/s speed=0.0113x elapsed=0:01:48.04    \nframe=   75 fps=0.7 q=42.5 size=       0KiB time=00:00:01.21 bitrate=   0.3kbits/s speed=0.0112x elapsed=0:01:48.56    \nframe=   76 fps=0.7 q=42.7 size=       0KiB time=00:00:01.23 bitrate=   0.3kbits/s speed=0.0113x elapsed=0:01:49.07    \nframe=   76 fps=0.7 q=42.7 size=       0KiB time=00:00:01.23 bitrate=   0.3kbits/s speed=0.0113x elapsed=0:01:49.59    \nframe=   77 fps=0.7 q=38.6 size=       0KiB time=00:00:01.25 bitrate=   0.3kbits/s speed=0.0114x elapsed=0:01:50.12    \nframe=   78 fps=0.7 q=41.5 size=       0KiB time=00:00:01.26 bitrate=   0.3kbits/s speed=0.0114x elapsed=0:01:50.64    \nframe=   78 fps=0.7 q=41.5 size=       0KiB time=00:00:01.26 bitrate=   0.3kbits/s speed=0.0114x elapsed=0:01:51.17    \nframe=   79 fps=0.7 q=42.6 size=       0KiB time=00:00:01.28 bitrate=   0.3kbits/s speed=0.0115x elapsed=0:01:51.69    \nframe=   79 fps=0.7 q=42.6 size=       0KiB time=00:00:01.28 bitrate=   0.3kbits/s speed=0.0114x elapsed=0:01:52.21    \nframe=   79 fps=0.7 q=42.6 size=       0KiB time=00:00:01.28 bitrate=   0.3kbits/s speed=0.0114x elapsed=0:01:52.74    \nframe=   79 fps=0.7 q=42.6 size=       0KiB time=00:00:01.28 bitrate=   0.3kbits/s speed=0.0113x elapsed=0:01:53.25    \nframe=   79 fps=0.7 q=42.6 size=       0KiB time=00:00:01.28 bitrate=   0.3kbits/s speed=0.0113x elapsed=0:01:53.79    \nframe=   80 fps=0.7 q=42.5 size=       0KiB time=00:00:01.30 bitrate=   0.3kbits/s speed=0.0114x elapsed=0:01:54.32    \nframe=   80 fps=0.7 q=42.5 size=       0KiB time=00:00:01.30 bitrate=   0.3kbits/s speed=0.0113x elapsed=0:01:54.83    \nframe=   81 fps=0.7 q=43.5 size=       0KiB time=00:00:01.31 bitrate=   0.3kbits/s speed=0.0114x elapsed=0:01:55.37    \nframe=   82 fps=0.7 q=38.7 size=       0KiB time=00:00:01.33 bitrate=   0.3kbits/s speed=0.0115x elapsed=0:01:55.87    \nframe=   82 fps=0.7 q=38.7 size=       0KiB time=00:00:01.33 bitrate=   0.3kbits/s speed=0.0115x elapsed=0:01:56.41    \nframe=   83 fps=0.7 q=42.0 size=       0KiB time=00:00:01.35 bitrate=   0.3kbits/s speed=0.0115x elapsed=0:01:56.92    \nframe=   84 fps=0.7 q=43.3 size=       0KiB time=00:00:01.36 bitrate=   0.3kbits/s speed=0.0116x elapsed=0:01:57.45    \nframe=   84 fps=0.7 q=43.3 size=       0KiB time=00:00:01.36 bitrate=   0.3kbits/s speed=0.0116x elapsed=0:01:57.97    \nframe=   84 fps=0.7 q=43.3 size=       0KiB time=00:00:01.36 bitrate=   0.3kbits/s speed=0.0115x elapsed=0:01:58.49    \nframe=   85 fps=0.7 q=43.3 size=       0KiB time=00:00:01.38 bitrate=   0.3kbits/s speed=0.0116x elapsed=0:01:59.01    \nframe=   85 fps=0.7 q=43.3 size=       0KiB time=00:00:01.38 bitrate=   0.3kbits/s speed=0.0116x elapsed=0:01:59.54    \nframe=   87 fps=0.7 q=39.2 size=       0KiB time=00:00:01.41 bitrate=   0.2kbits/s speed=0.0118x elapsed=0:02:00.05    \nframe=   87 fps=0.7 q=39.2 size=       0KiB time=00:00:01.41 bitrate=   0.2kbits/s speed=0.0117x elapsed=0:02:00.58    \nframe=   87 fps=0.7 q=39.2 size=       0KiB time=00:00:01.41 bitrate=   0.2kbits/s speed=0.0117x elapsed=0:02:01.11    \nframe=   88 fps=0.7 q=42.1 size=       0KiB time=00:00:01.43 bitrate=   0.2kbits/s speed=0.0118x elapsed=0:02:01.63    \nframe=   89 fps=0.7 q=43.5 size=       0KiB time=00:00:01.45 bitrate=   0.2kbits/s speed=0.0119x elapsed=0:02:02.16    \nframe=   89 fps=0.7 q=43.5 size=       0KiB time=00:00:01.45 bitrate=   0.2kbits/s speed=0.0118x elapsed=0:02:02.67    \nframe=   89 fps=0.7 q=43.5 size=       0KiB time=00:00:01.45 bitrate=   0.2kbits/s speed=0.0118x elapsed=0:02:03.22    \nframe=   89 fps=0.7 q=43.5 size=       0KiB time=00:00:01.45 bitrate=   0.2kbits/s speed=0.0117x elapsed=0:02:03.74    \nframe=   89 fps=0.7 q=43.5 size=       0KiB time=00:00:01.45 bitrate=   0.2kbits/s speed=0.0117x elapsed=0:02:04.28    \nframe=   89 fps=0.7 q=43.5 size=       0KiB time=00:00:01.45 bitrate=   0.2kbits/s speed=0.0116x elapsed=0:02:04.81    \nframe=   90 fps=0.7 q=43.1 size=       0KiB time=00:00:01.46 bitrate=   0.2kbits/s speed=0.0117x elapsed=0:02:05.32    \nframe=   90 fps=0.7 q=43.1 size=       0KiB time=00:00:01.46 bitrate=   0.2kbits/s speed=0.0117x elapsed=0:02:05.86    \nframe=   90 fps=0.7 q=43.1 size=       0KiB time=00:00:01.46 bitrate=   0.2kbits/s speed=0.0116x elapsed=0:02:06.40    \nframe=   91 fps=0.7 q=43.5 size=       0KiB time=00:00:01.48 bitrate=   0.2kbits/s speed=0.0117x elapsed=0:02:06.93    \nframe=   92 fps=0.7 q=39.0 size=       0KiB time=00:00:01.50 bitrate=   0.2kbits/s speed=0.0118x elapsed=0:02:07.46    \nframe=   92 fps=0.7 q=39.0 size=       0KiB time=00:00:01.50 bitrate=   0.2kbits/s speed=0.0117x elapsed=0:02:08.00    \nframe=   93 fps=0.7 q=42.2 size=       0KiB time=00:00:01.51 bitrate=   0.2kbits/s speed=0.0118x elapsed=0:02:08.53    \nframe=   94 fps=0.7 q=43.5 size=       0KiB time=00:00:01.53 bitrate=   0.2kbits/s speed=0.0119x elapsed=0:02:09.06    \nframe=   94 fps=0.7 q=43.5 size=       0KiB time=00:00:01.53 bitrate=   0.2kbits/s speed=0.0118x elapsed=0:02:09.62    \nframe=   94 fps=0.7 q=43.5 size=       0KiB time=00:00:01.53 bitrate=   0.2kbits/s speed=0.0118x elapsed=0:02:10.16    \nframe=   94 fps=0.7 q=43.5 size=       0KiB time=00:00:01.53 bitrate=   0.2kbits/s speed=0.0117x elapsed=0:02:10.69    \nframe=   95 fps=0.7 q=43.2 size=       0KiB time=00:00:01.55 bitrate=   0.2kbits/s speed=0.0118x elapsed=0:02:11.23    \nframe=   95 fps=0.7 q=43.2 size=       0KiB time=00:00:01.55 bitrate=   0.2kbits/s speed=0.0118x elapsed=0:02:11.74    \nframe=   96 fps=0.7 q=43.5 size=       0KiB time=00:00:01.56 bitrate=   0.2kbits/s speed=0.0118x elapsed=0:02:12.29    \nframe=   97 fps=0.7 q=39.1 size=       0KiB time=00:00:01.58 bitrate=   0.2kbits/s speed=0.0119x elapsed=0:02:12.81    \nframe=   98 fps=0.7 q=42.4 size=       0KiB time=00:00:01.60 bitrate=   0.2kbits/s speed=0.012x elapsed=0:02:13.33    \nframe=   98 fps=0.7 q=42.4 size=       0KiB time=00:00:01.60 bitrate=   0.2kbits/s speed=0.0119x elapsed=0:02:13.93    \nframe=   98 fps=0.7 q=42.4 size=       0KiB time=00:00:01.60 bitrate=   0.2kbits/s speed=0.0119x elapsed=0:02:14.45    \nframe=   98 fps=0.7 q=42.4 size=       0KiB time=00:00:01.60 bitrate=   0.2kbits/s speed=0.0119x elapsed=0:02:14.99    \nframe=   99 fps=0.7 q=43.6 size=       0KiB time=00:00:01.61 bitrate=   0.2kbits/s speed=0.0119x elapsed=0:02:15.52    \nframe=   99 fps=0.7 q=43.6 size=       0KiB time=00:00:01.61 bitrate=   0.2kbits/s speed=0.0119x elapsed=0:02:16.05    \nframe=   99 fps=0.7 q=43.6 size=       0KiB time=00:00:01.61 bitrate=   0.2kbits/s speed=0.0118x elapsed=0:02:16.59    \nframe=   99 fps=0.7 q=43.6 size=       0KiB time=00:00:01.61 bitrate=   0.2kbits/s speed=0.0118x elapsed=0:02:17.16    \nframe=  100 fps=0.7 q=43.6 size=       0KiB time=00:00:01.63 bitrate=   0.2kbits/s speed=0.0119x elapsed=0:02:17.67    \nframe=  100 fps=0.7 q=43.6 size=       0KiB time=00:00:01.63 bitrate=   0.2kbits/s speed=0.0118x elapsed=0:02:18.23    \nframe=  101 fps=0.7 q=44.3 size=       0KiB time=00:00:01.65 bitrate=   0.2kbits/s speed=0.0119x elapsed=0:02:18.75    \nframe=  101 fps=0.7 q=44.3 size=       0KiB time=00:00:01.65 bitrate=   0.2kbits/s speed=0.0118x elapsed=0:02:19.27    \nframe=  102 fps=0.7 q=39.1 size=       0KiB time=00:00:01.66 bitrate=   0.2kbits/s speed=0.0119x elapsed=0:02:19.80    \nframe=  102 fps=0.7 q=39.1 size=       0KiB time=00:00:01.66 bitrate=   0.2kbits/s speed=0.0119x elapsed=0:02:20.31    \nframe=  102 fps=0.7 q=39.1 size=       0KiB time=00:00:01.66 bitrate=   0.2kbits/s speed=0.0118x elapsed=0:02:20.83    \nframe=  103 fps=0.7 q=42.8 size=       0KiB time=00:00:01.68 bitrate=   0.2kbits/s speed=0.0119x elapsed=0:02:21.35    \nframe=  103 fps=0.7 q=42.8 size=       0KiB time=00:00:01.68 bitrate=   0.2kbits/s speed=0.0119x elapsed=0:02:21.91    \nframe=  103 fps=0.7 q=42.8 size=       0KiB time=00:00:01.68 bitrate=   0.2kbits/s speed=0.0118x elapsed=0:02:22.43    \nframe=  104 fps=0.7 q=44.1 size=       0KiB time=00:00:01.70 bitrate=   0.2kbits/s speed=0.0119x elapsed=0:02:22.99    \nframe=  104 fps=0.7 q=44.1 size=       0KiB time=00:00:01.70 bitrate=   0.2kbits/s speed=0.0118x elapsed=0:02:23.56    \nframe=  104 fps=0.7 q=44.1 size=       0KiB time=00:00:01.70 bitrate=   0.2kbits/s speed=0.0118x elapsed=0:02:24.10    \nframe=  104 fps=0.7 q=44.1 size=       0KiB time=00:00:01.70 bitrate=   0.2kbits/s speed=0.0118x elapsed=0:02:24.63    \nframe=  105 fps=0.7 q=44.0 size=       0KiB time=00:00:01.71 bitrate=   0.2kbits/s speed=0.0118x elapsed=0:02:25.14    \nframe=  105 fps=0.7 q=44.0 size=       0KiB time=00:00:01.71 bitrate=   0.2kbits/s speed=0.0118x elapsed=0:02:25.69    \nframe=  105 fps=0.7 q=44.0 size=       0KiB time=00:00:01.71 bitrate=   0.2kbits/s speed=0.0117x elapsed=0:02:26.22    \nframe=  106 fps=0.7 q=44.2 size=       0KiB time=00:00:01.73 bitrate=   0.2kbits/s speed=0.0118x elapsed=0:02:26.74    \nframe=  106 fps=0.7 q=44.2 size=       0KiB time=00:00:01.73 bitrate=   0.2kbits/s speed=0.0118x elapsed=0:02:27.29    \nframe=  107 fps=0.7 q=39.2 size=       0KiB time=00:00:01.75 bitrate=   0.2kbits/s speed=0.0118x elapsed=0:02:27.82    \nframe=  107 fps=0.7 q=39.2 size=       0KiB time=00:00:01.75 bitrate=   0.2kbits/s speed=0.0118x elapsed=0:02:28.36    \nframe=  107 fps=0.7 q=39.2 size=       0KiB time=00:00:01.75 bitrate=   0.2kbits/s speed=0.0118x elapsed=0:02:28.87    \nframe=  107 fps=0.7 q=39.2 size=       0KiB time=00:00:01.75 bitrate=   0.2kbits/s speed=0.0117x elapsed=0:02:29.39    \nframe=  107 fps=0.7 q=39.2 size=       0KiB time=00:00:01.75 bitrate=   0.2kbits/s speed=0.0117x elapsed=0:02:29.92    \nframe=  108 fps=0.7 q=41.9 size=       0KiB time=00:00:01.76 bitrate=   0.2kbits/s speed=0.0117x elapsed=0:02:30.46    \nframe=  108 fps=0.7 q=41.9 size=       0KiB time=00:00:01.76 bitrate=   0.2kbits/s speed=0.0117x elapsed=0:02:31.01    \nframe=  108 fps=0.7 q=41.9 size=       0KiB time=00:00:01.76 bitrate=   0.2kbits/s speed=0.0117x elapsed=0:02:31.53    \nframe=  108 fps=0.7 q=41.9 size=       0KiB time=00:00:01.76 bitrate=   0.2kbits/s speed=0.0116x elapsed=0:02:32.06    \nframe=  108 fps=0.7 q=41.9 size=       0KiB time=00:00:01.76 bitrate=   0.2kbits/s speed=0.0116x elapsed=0:02:32.58    \nframe=  109 fps=0.7 q=44.4 size=       0KiB time=00:00:01.78 bitrate=   0.2kbits/s speed=0.0116x elapsed=0:02:33.10    \nframe=  109 fps=0.7 q=44.4 size=       0KiB time=00:00:01.78 bitrate=   0.2kbits/s speed=0.0116x elapsed=0:02:33.62    \nframe=  109 fps=0.7 q=44.4 size=       0KiB time=00:00:01.78 bitrate=   0.2kbits/s speed=0.0116x elapsed=0:02:34.15    \nframe=  109 fps=0.7 q=44.4 size=       0KiB time=00:00:01.78 bitrate=   0.2kbits/s speed=0.0115x elapsed=0:02:34.67    \nframe=  109 fps=0.7 q=44.4 size=       0KiB time=00:00:01.78 bitrate=   0.2kbits/s speed=0.0115x elapsed=0:02:35.19    \nframe=  109 fps=0.7 q=44.4 size=       0KiB time=00:00:01.78 bitrate=   0.2kbits/s speed=0.0115x elapsed=0:02:35.70    \nframe=  110 fps=0.7 q=44.2 size=       0KiB time=00:00:01.80 bitrate=   0.2kbits/s speed=0.0115x elapsed=0:02:36.22    \nframe=  110 fps=0.7 q=44.2 size=       0KiB time=00:00:01.80 bitrate=   0.2kbits/s speed=0.0115x elapsed=0:02:36.75    \nframe=  111 fps=0.7 q=39.1 size=       0KiB time=00:00:01.81 bitrate=   0.2kbits/s speed=0.0116x elapsed=0:02:37.26    \nframe=  112 fps=0.7 q=41.7 size=       0KiB time=00:00:01.83 bitrate=   0.2kbits/s speed=0.0116x elapsed=0:02:37.79    \nframe=  113 fps=0.7 q=44.0 size=       0KiB time=00:00:01.85 bitrate=   0.2kbits/s speed=0.0117x elapsed=0:02:38.31    \nframe=  113 fps=0.7 q=44.0 size=       0KiB time=00:00:01.85 bitrate=   0.2kbits/s speed=0.0116x elapsed=0:02:38.83    \nframe=  113 fps=0.7 q=44.0 size=       0KiB time=00:00:01.85 bitrate=   0.2kbits/s speed=0.0116x elapsed=0:02:39.35    \nframe=  114 fps=0.7 q=43.9 size=       0KiB time=00:00:01.86 bitrate=   0.2kbits/s speed=0.0117x elapsed=0:02:39.87    \nframe=  114 fps=0.7 q=43.9 size=       0KiB time=00:00:01.86 bitrate=   0.2kbits/s speed=0.0116x elapsed=0:02:40.38    \nframe=  114 fps=0.7 q=43.9 size=       0KiB time=00:00:01.86 bitrate=   0.2kbits/s speed=0.0116x elapsed=0:02:40.92    \nframe=  114 fps=0.7 q=43.9 size=       0KiB time=00:00:01.86 bitrate=   0.2kbits/s speed=0.0116x elapsed=0:02:41.45    \nframe=  114 fps=0.7 q=43.9 size=       0KiB time=00:00:01.86 bitrate=   0.2kbits/s speed=0.0115x elapsed=0:02:42.01    \nframe=  115 fps=0.7 q=44.0 size=       0KiB time=00:00:01.88 bitrate=   0.2kbits/s speed=0.0116x elapsed=0:02:42.56    \nframe=  115 fps=0.7 q=44.0 size=       0KiB time=00:00:01.88 bitrate=   0.2kbits/s speed=0.0115x elapsed=0:02:43.10    \nframe=  115 fps=0.7 q=44.0 size=       0KiB time=00:00:01.88 bitrate=   0.2kbits/s speed=0.0115x elapsed=0:02:43.67    \nframe=  115 fps=0.7 q=44.0 size=       0KiB time=00:00:01.88 bitrate=   0.2kbits/s speed=0.0115x elapsed=0:02:44.21    \nframe=  115 fps=0.7 q=44.0 size=       0KiB time=00:00:01.88 bitrate=   0.2kbits/s speed=0.0114x elapsed=0:02:44.74    \nframe=  116 fps=0.7 q=39.3 size=       0KiB time=00:00:01.90 bitrate=   0.2kbits/s speed=0.0115x elapsed=0:02:45.29    \nframe=  116 fps=0.7 q=39.3 size=       0KiB time=00:00:01.90 bitrate=   0.2kbits/s speed=0.0115x elapsed=0:02:45.81    \nframe=  118 fps=0.7 q=43.8 size=       0KiB time=00:00:01.93 bitrate=   0.2kbits/s speed=0.0116x elapsed=0:02:46.33    \nframe=  118 fps=0.7 q=43.8 size=       0KiB time=00:00:01.93 bitrate=   0.2kbits/s speed=0.0116x elapsed=0:02:46.85    \nframe=  118 fps=0.7 q=43.8 size=       0KiB time=00:00:01.93 bitrate=   0.2kbits/s speed=0.0116x elapsed=0:02:47.36    \nframe=  120 fps=0.7 q=44.2 size=       0KiB time=00:00:01.96 bitrate=   0.2kbits/s speed=0.0117x elapsed=0:02:47.88    \nframe=  121 fps=0.7 q=39.1 size=       0KiB time=00:00:01.98 bitrate=   0.2kbits/s speed=0.0118x elapsed=0:02:48.39    \nframe=  122 fps=0.7 q=40.6 size=       0KiB time=00:00:02.00 bitrate=   0.2kbits/s speed=0.0118x elapsed=0:02:48.90    \nframe=  123 fps=0.7 q=43.8 size=       0KiB time=00:00:02.01 bitrate=   0.2kbits/s speed=0.0119x elapsed=0:02:49.42    \nframe=  124 fps=0.7 q=43.8 size=       0KiB time=00:00:02.03 bitrate=   0.2kbits/s speed=0.012x elapsed=0:02:49.94    \nframe=  125 fps=0.7 q=44.2 size=       0KiB time=00:00:02.05 bitrate=   0.2kbits/s speed=0.012x elapsed=0:02:50.46    \nframe=  126 fps=0.7 q=38.8 size=       0KiB time=00:00:02.06 bitrate=   0.2kbits/s speed=0.0121x elapsed=0:02:50.97    \nframe=  127 fps=0.7 q=42.6 size=       0KiB time=00:00:02.08 bitrate=   0.2kbits/s speed=0.0121x elapsed=0:02:51.49    \nframe=  128 fps=0.7 q=44.1 size=       0KiB time=00:00:02.10 bitrate=   0.2kbits/s speed=0.0122x elapsed=0:02:52.01    \nframe=  130 fps=0.8 q=44.6 size=       0KiB time=00:00:02.13 bitrate=   0.2kbits/s speed=0.0124x elapsed=0:02:52.52    \nframe=  131 fps=0.8 q=38.9 size=       0KiB time=00:00:02.15 bitrate=   0.2kbits/s speed=0.0124x elapsed=0:02:53.04    \nframe=  133 fps=0.8 q=44.3 size=     256KiB time=00:00:02.18 bitrate= 960.7kbits/s speed=0.0126x elapsed=0:02:53.57    \nframe=  134 fps=0.8 q=44.1 size=     256KiB time=00:00:02.20 bitrate= 953.4kbits/s speed=0.0126x elapsed=0:02:54.07    \nframe=  135 fps=0.8 q=44.7 size=     256KiB time=00:00:02.21 bitrate= 946.2kbits/s speed=0.0127x elapsed=0:02:54.60    \nframe=  136 fps=0.8 q=38.9 size=     256KiB time=00:00:02.23 bitrate= 939.2kbits/s speed=0.0128x elapsed=0:02:55.13    \nframe=  137 fps=0.8 q=42.4 size=     256KiB time=00:00:02.25 bitrate= 932.2kbits/s speed=0.0128x elapsed=0:02:55.63    \nframe=  138 fps=0.8 q=44.7 size=     256KiB time=00:00:02.26 bitrate= 925.4kbits/s speed=0.0129x elapsed=0:02:56.16    \nframe=  140 fps=0.8 q=45.0 size=     256KiB time=00:00:02.30 bitrate= 912.0kbits/s speed=0.013x elapsed=0:02:56.67    \nframe=  141 fps=0.8 q=38.7 size=     256KiB time=00:00:02.31 bitrate= 905.4kbits/s speed=0.0131x elapsed=0:02:57.18    \nframe=  142 fps=0.8 q=42.5 size=     256KiB time=00:00:02.33 bitrate= 898.9kbits/s speed=0.0131x elapsed=0:02:57.70    \nframe=  143 fps=0.8 q=44.6 size=     256KiB time=00:00:02.35 bitrate= 892.6kbits/s speed=0.0132x elapsed=0:02:58.22    \nframe=  144 fps=0.8 q=44.6 size=     256KiB time=00:00:02.36 bitrate= 886.3kbits/s speed=0.0132x elapsed=0:02:58.73    \nframe=  146 fps=0.8 q=38.8 size=     256KiB time=00:00:02.40 bitrate= 874.0kbits/s speed=0.0134x elapsed=0:02:59.25    \nframe=  147 fps=0.8 q=43.1 size=     256KiB time=00:00:02.41 bitrate= 867.9kbits/s speed=0.0134x elapsed=0:02:59.77    \nframe=  148 fps=0.8 q=44.6 size=     256KiB time=00:00:02.43 bitrate= 862.0kbits/s speed=0.0135x elapsed=0:03:00.29    \nframe=  149 fps=0.8 q=44.5 size=     256KiB time=00:00:02.45 bitrate= 856.1kbits/s speed=0.0136x elapsed=0:03:00.79    \nframe=  150 fps=0.8 q=44.8 size=     256KiB time=00:00:02.46 bitrate= 850.3kbits/s speed=0.0136x elapsed=0:03:01.32    \nframe=  152 fps=0.8 q=42.4 size=     256KiB time=00:00:02.50 bitrate= 839.0kbits/s speed=0.0137x elapsed=0:03:01.83    \nframe=  153 fps=0.8 q=43.7 size=     256KiB time=00:00:02.51 bitrate= 833.4kbits/s speed=0.0138x elapsed=0:03:02.34    \nframe=  154 fps=0.8 q=44.5 size=     256KiB time=00:00:02.53 bitrate= 828.0kbits/s speed=0.0139x elapsed=0:03:02.86    \nframe=  155 fps=0.8 q=43.9 size=     256KiB time=00:00:02.55 bitrate= 822.6kbits/s speed=0.0139x elapsed=0:03:03.38    \nframe=  156 fps=0.8 q=38.2 size=     256KiB time=00:00:02.56 bitrate= 817.2kbits/s speed=0.014x elapsed=0:03:03.89    \nframe=  157 fps=0.9 q=42.4 size=     256KiB time=00:00:02.58 bitrate= 811.9kbits/s speed=0.014x elapsed=0:03:04.40    \nframe=  158 fps=0.9 q=43.7 size=     256KiB time=00:00:02.60 bitrate= 806.7kbits/s speed=0.0141x elapsed=0:03:04.92    \nframe=  159 fps=0.9 q=44.5 size=     256KiB time=00:00:02.61 bitrate= 801.6kbits/s speed=0.0141x elapsed=0:03:05.44    \nframe=  160 fps=0.9 q=43.8 size=     256KiB time=00:00:02.63 bitrate= 796.5kbits/s speed=0.0142x elapsed=0:03:05.96    \nframe=  161 fps=0.9 q=38.4 size=     256KiB time=00:00:02.65 bitrate= 791.5kbits/s speed=0.0142x elapsed=0:03:06.48    \nframe=  163 fps=0.9 q=43.6 size=     256KiB time=00:00:02.68 bitrate= 781.7kbits/s speed=0.0144x elapsed=0:03:06.98    \nframe=  164 fps=0.9 q=43.7 size=     256KiB time=00:00:02.70 bitrate= 776.9kbits/s speed=0.0144x elapsed=0:03:07.51    \nframe=  165 fps=0.9 q=43.8 size=     256KiB time=00:00:02.71 bitrate= 772.1kbits/s speed=0.0144x elapsed=0:03:08.02    \nframe=  166 fps=0.9 q=38.3 size=     256KiB time=00:00:02.73 bitrate= 767.4kbits/s speed=0.0145x elapsed=0:03:08.53    \nframe=  166 fps=0.9 q=38.3 size=     256KiB time=00:00:02.73 bitrate= 767.4kbits/s speed=0.0145x elapsed=0:03:09.04    \nframe=  168 fps=0.9 q=43.6 size=     256KiB time=00:00:02.76 bitrate= 758.1kbits/s speed=0.0146x elapsed=0:03:09.57    \nframe=  169 fps=0.9 q=43.5 size=     256KiB time=00:00:02.78 bitrate= 753.6kbits/s speed=0.0146x elapsed=0:03:10.08    \nframe=  170 fps=0.9 q=43.7 size=     256KiB time=00:00:02.80 bitrate= 749.1kbits/s speed=0.0147x elapsed=0:03:10.60    \nframe=  172 fps=0.9 q=42.2 size=     256KiB time=00:00:02.83 bitrate= 740.3kbits/s speed=0.0148x elapsed=0:03:11.12    \nframe=  172 fps=0.9 q=42.2 size=     256KiB time=00:00:02.83 bitrate= 740.3kbits/s speed=0.0148x elapsed=0:03:11.64    \nframe=  173 fps=0.9 q=43.5 size=     256KiB time=00:00:02.85 bitrate= 736.0kbits/s speed=0.0148x elapsed=0:03:12.15    \nframe=  174 fps=0.9 q=43.5 size=     256KiB time=00:00:02.86 bitrate= 731.7kbits/s speed=0.0149x elapsed=0:03:12.67    \nframe=  175 fps=0.9 q=44.5 size=     256KiB time=00:00:02.88 bitrate= 727.5kbits/s speed=0.0149x elapsed=0:03:13.19    \nframe=  177 fps=0.9 q=42.4 size=     256KiB time=00:00:02.91 bitrate= 719.1kbits/s speed=0.0151x elapsed=0:03:13.70    \nframe=  177 fps=0.9 q=42.4 size=     256KiB time=00:00:02.91 bitrate= 719.1kbits/s speed=0.015x elapsed=0:03:14.21    \nframe=  178 fps=0.9 q=44.3 size=     256KiB time=00:00:02.93 bitrate= 715.1kbits/s speed=0.0151x elapsed=0:03:14.74    \nframe=  179 fps=0.9 q=44.0 size=     256KiB time=00:00:02.95 bitrate= 711.0kbits/s speed=0.0151x elapsed=0:03:15.25    \nframe=  181 fps=0.9 q=38.8 size=     256KiB time=00:00:02.98 bitrate= 703.1kbits/s speed=0.0152x elapsed=0:03:15.77    \nframe=  182 fps=0.9 q=42.8 size=     256KiB time=00:00:03.00 bitrate= 699.2kbits/s speed=0.0153x elapsed=0:03:16.29    \nframe=  183 fps=0.9 q=44.2 size=     256KiB time=00:00:03.01 bitrate= 695.3kbits/s speed=0.0153x elapsed=0:03:16.79    \nframe=  184 fps=0.9 q=44.1 size=     256KiB time=00:00:03.03 bitrate= 691.5kbits/s speed=0.0154x elapsed=0:03:17.32    \nframe=  185 fps=0.9 q=44.5 size=     256KiB time=00:00:03.05 bitrate= 687.7kbits/s speed=0.0154x elapsed=0:03:17.83    \nframe=  186 fps=0.9 q=38.9 size=     256KiB time=00:00:03.06 bitrate= 684.0kbits/s speed=0.0155x elapsed=0:03:18.36    \nframe=  187 fps=0.9 q=42.8 size=     256KiB time=00:00:03.08 bitrate= 680.3kbits/s speed=0.0155x elapsed=0:03:18.87    \nframe=  187 fps=0.9 q=42.8 size=     256KiB time=00:00:03.08 bitrate= 680.3kbits/s speed=0.0155x elapsed=0:03:19.39    \nframe=  187 fps=0.9 q=42.8 size=     256KiB time=00:00:03.08 bitrate= 680.3kbits/s speed=0.0154x elapsed=0:03:19.92    \nframe=  188 fps=0.9 q=44.1 size=     256KiB time=00:00:03.10 bitrate= 676.6kbits/s speed=0.0155x elapsed=0:03:20.44    \nframe=  188 fps=0.9 q=44.1 size=     256KiB time=00:00:03.10 bitrate= 676.6kbits/s speed=0.0154x elapsed=0:03:20.96    \nframe=  188 fps=0.9 q=44.1 size=     256KiB time=00:00:03.10 bitrate= 676.6kbits/s speed=0.0154x elapsed=0:03:21.47    \nframe=  189 fps=0.9 q=44.1 size=     256KiB time=00:00:03.11 bitrate= 673.0kbits/s speed=0.0154x elapsed=0:03:21.98    \nframe=  189 fps=0.9 q=44.1 size=     256KiB time=00:00:03.11 bitrate= 673.0kbits/s speed=0.0154x elapsed=0:03:22.50    \nframe=  189 fps=0.9 q=44.1 size=     256KiB time=00:00:03.11 bitrate= 673.0kbits/s speed=0.0154x elapsed=0:03:23.03    \nframe=  191 fps=0.9 q=38.9 size=     256KiB time=00:00:03.15 bitrate= 665.9kbits/s speed=0.0155x elapsed=0:03:23.58    \nframe=  192 fps=0.9 q=42.9 size=     256KiB time=00:00:03.16 bitrate= 662.4kbits/s speed=0.0155x elapsed=0:03:24.09    \nframe=  192 fps=0.9 q=42.9 size=     256KiB time=00:00:03.16 bitrate= 662.4kbits/s speed=0.0155x elapsed=0:03:24.62    \nframe=  193 fps=0.9 q=44.2 size=     256KiB time=00:00:03.18 bitrate= 658.9kbits/s speed=0.0155x elapsed=0:03:25.14    \nframe=  193 fps=0.9 q=44.2 size=     256KiB time=00:00:03.18 bitrate= 658.9kbits/s speed=0.0155x elapsed=0:03:25.66    \nframe=  193 fps=0.9 q=44.2 size=     256KiB time=00:00:03.18 bitrate= 658.9kbits/s speed=0.0154x elapsed=0:03:26.19    \nframe=  193 fps=0.9 q=44.2 size=     256KiB time=00:00:03.18 bitrate= 658.9kbits/s speed=0.0154x elapsed=0:03:26.70    \nframe=  194 fps=0.9 q=44.1 size=     256KiB time=00:00:03.20 bitrate= 655.5kbits/s speed=0.0154x elapsed=0:03:27.23    \nframe=  195 fps=0.9 q=44.3 size=     256KiB time=00:00:03.20 bitrate= 655.5kbits/s speed=0.0154x elapsed=0:03:27.75    \nframe=  195 fps=0.9 q=44.3 size=     256KiB time=00:00:03.21 bitrate= 652.1kbits/s speed=0.0154x elapsed=0:03:28.27    \nframe=  195 fps=0.9 q=44.3 size=     256KiB time=00:00:03.21 bitrate= 652.1kbits/s speed=0.0154x elapsed=0:03:28.80    \nframe=  196 fps=0.9 q=38.6 size=     256KiB time=00:00:03.23 bitrate= 648.7kbits/s speed=0.0154x elapsed=0:03:29.33    \nframe=  197 fps=0.9 q=42.9 size=     256KiB time=00:00:03.25 bitrate= 645.4kbits/s speed=0.0155x elapsed=0:03:29.84    \nframe=  198 fps=0.9 q=44.2 size=     256KiB time=00:00:03.26 bitrate= 642.1kbits/s speed=0.0155x elapsed=0:03:30.36    \nframe=  199 fps=0.9 q=44.1 size=     256KiB time=00:00:03.28 bitrate= 638.8kbits/s speed=0.0156x elapsed=0:03:30.88    \nframe=  200 fps=0.9 q=44.3 size=     256KiB time=00:00:03.30 bitrate= 635.6kbits/s speed=0.0156x elapsed=0:03:31.40    \nframe=  200 fps=0.9 q=44.3 size=     256KiB time=00:00:03.30 bitrate= 635.6kbits/s speed=0.0156x elapsed=0:03:31.92    \nframe=  200 fps=0.9 q=44.3 size=     256KiB time=00:00:03.30 bitrate= 635.6kbits/s speed=0.0155x elapsed=0:03:32.43    \nframe=  201 fps=0.9 q=38.4 size=     256KiB time=00:00:03.31 bitrate= 632.4kbits/s speed=0.0156x elapsed=0:03:32.97    \nframe=  202 fps=0.9 q=42.6 size=     256KiB time=00:00:03.33 bitrate= 629.3kbits/s speed=0.0156x elapsed=0:03:33.51    \nframe=  202 fps=0.9 q=42.6 size=     256KiB time=00:00:03.33 bitrate= 629.3kbits/s speed=0.0156x elapsed=0:03:34.03    \nframe=  203 fps=0.9 q=44.0 size=     256KiB time=00:00:03.35 bitrate= 626.1kbits/s speed=0.0156x elapsed=0:03:34.54    \nframe=  203 fps=0.9 q=44.0 size=     256KiB time=00:00:03.35 bitrate= 626.1kbits/s speed=0.0156x elapsed=0:03:35.07    \nframe=  203 fps=0.9 q=44.0 size=     256KiB time=00:00:03.35 bitrate= 626.1kbits/s speed=0.0155x elapsed=0:03:35.59    \nframe=  204 fps=0.9 q=44.0 size=     256KiB time=00:00:03.36 bitrate= 623.0kbits/s speed=0.0156x elapsed=0:03:36.11    \nframe=  204 fps=0.9 q=44.0 size=     256KiB time=00:00:03.36 bitrate= 623.0kbits/s speed=0.0155x elapsed=0:03:36.65    \nframe=  205 fps=0.9 q=44.2 size=     256KiB time=00:00:03.38 bitrate= 620.0kbits/s speed=0.0156x elapsed=0:03:37.17    \nframe=  205 fps=0.9 q=44.2 size=     256KiB time=00:00:03.38 bitrate= 620.0kbits/s speed=0.0155x elapsed=0:03:37.69    \nframe=  206 fps=0.9 q=38.2 size=     256KiB time=00:00:03.40 bitrate= 616.9kbits/s speed=0.0156x elapsed=0:03:38.24    \nframe=  206 fps=0.9 q=38.2 size=     256KiB time=00:00:03.40 bitrate= 616.9kbits/s speed=0.0155x elapsed=0:03:38.77    \nframe=  207 fps=0.9 q=42.0 size=     256KiB time=00:00:03.41 bitrate= 613.9kbits/s speed=0.0156x elapsed=0:03:39.30    \nframe=  208 fps=0.9 q=43.9 size=     256KiB time=00:00:03.43 bitrate= 610.9kbits/s speed=0.0156x elapsed=0:03:39.82    \nframe=  208 fps=0.9 q=43.9 size=     256KiB time=00:00:03.43 bitrate= 610.9kbits/s speed=0.0156x elapsed=0:03:40.35    \nframe=  208 fps=0.9 q=43.9 size=     256KiB time=00:00:03.43 bitrate= 610.9kbits/s speed=0.0155x elapsed=0:03:40.89    \nframe=  208 fps=0.9 q=43.9 size=     256KiB time=00:00:03.43 bitrate= 610.9kbits/s speed=0.0155x elapsed=0:03:41.41    \nframe=  209 fps=0.9 q=43.9 size=     256KiB time=00:00:03.45 bitrate= 608.0kbits/s speed=0.0155x elapsed=0:03:41.92    \nframe=  209 fps=0.9 q=43.9 size=     256KiB time=00:00:03.45 bitrate= 608.0kbits/s speed=0.0155x elapsed=0:03:42.44    \nframe=  210 fps=0.9 q=43.4 size=     256KiB time=00:00:03.46 bitrate= 605.0kbits/s speed=0.0155x elapsed=0:03:42.97    \nframe=  211 fps=0.9 q=38.1 size=     256KiB time=00:00:03.48 bitrate= 602.2kbits/s speed=0.0156x elapsed=0:03:43.48    \nframe=  211 fps=0.9 q=38.1 size=     256KiB time=00:00:03.48 bitrate= 602.2kbits/s speed=0.0155x elapsed=0:03:44.01    \nframe=  211 fps=0.9 q=38.1 size=     256KiB time=00:00:03.48 bitrate= 602.2kbits/s speed=0.0155x elapsed=0:03:44.54    \nframe=  212 fps=0.9 q=41.8 size=     256KiB time=00:00:03.50 bitrate= 599.3kbits/s speed=0.0156x elapsed=0:03:45.07    \nframe=  213 fps=0.9 q=43.3 size=     256KiB time=00:00:03.51 bitrate= 596.4kbits/s speed=0.0156x elapsed=0:03:45.57    \nframe=  213 fps=0.9 q=43.3 size=     256KiB time=00:00:03.51 bitrate= 596.4kbits/s speed=0.0156x elapsed=0:03:46.10    \nframe=  214 fps=0.9 q=43.3 size=     256KiB time=00:00:03.51 bitrate= 596.4kbits/s speed=0.0155x elapsed=0:03:46.64    \nframe=  214 fps=0.9 q=43.3 size=     256KiB time=00:00:03.53 bitrate= 593.6kbits/s speed=0.0156x elapsed=0:03:47.18    \nframe=  214 fps=0.9 q=43.3 size=     256KiB time=00:00:03.53 bitrate= 593.6kbits/s speed=0.0155x elapsed=0:03:47.68    \nframe=  215 fps=0.9 q=43.3 size=     256KiB time=00:00:03.55 bitrate= 590.8kbits/s speed=0.0156x elapsed=0:03:48.20    \nframe=  216 fps=0.9 q=37.9 size=     256KiB time=00:00:03.56 bitrate= 588.1kbits/s speed=0.0156x elapsed=0:03:48.72    \nframe=  216 fps=0.9 q=37.9 size=     256KiB time=00:00:03.56 bitrate= 588.1kbits/s speed=0.0156x elapsed=0:03:49.23    \nframe=  217 fps=0.9 q=41.7 size=     256KiB time=00:00:03.58 bitrate= 585.4kbits/s speed=0.0156x elapsed=0:03:49.75    \nframe=  217 fps=0.9 q=41.7 size=     256KiB time=00:00:03.58 bitrate= 585.4kbits/s speed=0.0156x elapsed=0:03:50.29    \nframe=  217 fps=0.9 q=41.7 size=     256KiB time=00:00:03.58 bitrate= 585.4kbits/s speed=0.0155x elapsed=0:03:50.84    \nframe=  218 fps=0.9 q=43.1 size=     256KiB time=00:00:03.60 bitrate= 582.6kbits/s speed=0.0156x elapsed=0:03:51.37    \nframe=  218 fps=0.9 q=43.1 size=     256KiB time=00:00:03.60 bitrate= 582.6kbits/s speed=0.0155x elapsed=0:03:51.89    \nframe=  219 fps=0.9 q=43.1 size=     256KiB time=00:00:03.61 bitrate= 580.0kbits/s speed=0.0156x elapsed=0:03:52.41    \nframe=  219 fps=0.9 q=43.1 size=     256KiB time=00:00:03.61 bitrate= 580.0kbits/s speed=0.0155x elapsed=0:03:52.95    \nframe=  220 fps=0.9 q=43.0 size=     256KiB time=00:00:03.63 bitrate= 577.3kbits/s speed=0.0156x elapsed=0:03:53.52    \nframe=  220 fps=0.9 q=43.0 size=     256KiB time=00:00:03.63 bitrate= 577.3kbits/s speed=0.0155x elapsed=0:03:54.04    \nframe=  221 fps=0.9 q=37.7 size=     256KiB time=00:00:03.65 bitrate= 574.7kbits/s speed=0.0156x elapsed=0:03:54.57    \nframe=  222 fps=0.9 q=41.7 size=     256KiB time=00:00:03.66 bitrate= 572.0kbits/s speed=0.0156x elapsed=0:03:55.09    \nframe=  222 fps=0.9 q=41.7 size=     256KiB time=00:00:03.66 bitrate= 572.0kbits/s speed=0.0156x elapsed=0:03:55.64    \nframe=  222 fps=0.9 q=41.7 size=     256KiB time=00:00:03.66 bitrate= 572.0kbits/s speed=0.0155x elapsed=0:03:56.16    \nframe=  223 fps=0.9 q=43.3 size=     256KiB time=00:00:03.68 bitrate= 569.5kbits/s speed=0.0156x elapsed=0:03:56.70    \nframe=  223 fps=0.9 q=43.3 size=     256KiB time=00:00:03.68 bitrate= 569.5kbits/s speed=0.0155x elapsed=0:03:57.23    \nframe=  223 fps=0.9 q=43.3 size=     256KiB time=00:00:03.68 bitrate= 569.5kbits/s speed=0.0155x elapsed=0:03:57.77    \nframe=  223 fps=0.9 q=43.3 size=     256KiB time=00:00:03.68 bitrate= 569.5kbits/s speed=0.0155x elapsed=0:03:58.29    \nframe=  223 fps=0.9 q=43.3 size=     256KiB time=00:00:03.68 bitrate= 569.5kbits/s speed=0.0154x elapsed=0:03:58.83    \nframe=  224 fps=0.9 q=43.1 size=     256KiB time=00:00:03.70 bitrate= 566.9kbits/s speed=0.0155x elapsed=0:03:59.38    \nframe=  224 fps=0.9 q=43.1 size=     256KiB time=00:00:03.70 bitrate= 566.9kbits/s speed=0.0154x elapsed=0:03:59.91    \nframe=  225 fps=0.9 q=43.3 size=     256KiB time=00:00:03.71 bitrate= 564.4kbits/s speed=0.0155x elapsed=0:04:00.43    \nframe=  225 fps=0.9 q=43.3 size=     256KiB time=00:00:03.71 bitrate= 564.4kbits/s speed=0.0154x elapsed=0:04:00.95    \nframe=  225 fps=0.9 q=43.3 size=     256KiB time=00:00:03.71 bitrate= 564.4kbits/s speed=0.0154x elapsed=0:04:01.47    \nframe=  226 fps=0.9 q=37.6 size=     256KiB time=00:00:03.73 bitrate= 561.8kbits/s speed=0.0154x elapsed=0:04:02.01    \nframe=  226 fps=0.9 q=37.6 size=     256KiB time=00:00:03.73 bitrate= 561.8kbits/s speed=0.0154x elapsed=0:04:02.56    \nframe=  226 fps=0.9 q=37.6 size=     256KiB time=00:00:03.73 bitrate= 561.8kbits/s speed=0.0154x elapsed=0:04:03.10    \nframe=  227 fps=0.9 q=41.6 size=     256KiB time=00:00:03.75 bitrate= 559.3kbits/s speed=0.0154x elapsed=0:04:03.60    \nframe=  227 fps=0.9 q=41.6 size=     256KiB time=00:00:03.75 bitrate= 559.3kbits/s speed=0.0154x elapsed=0:04:04.13    \nframe=  228 fps=0.9 q=43.2 size=     256KiB time=00:00:03.76 bitrate= 556.9kbits/s speed=0.0154x elapsed=0:04:04.65    \nframe=  228 fps=0.9 q=43.2 size=     256KiB time=00:00:03.76 bitrate= 556.9kbits/s speed=0.0154x elapsed=0:04:05.18    \nframe=  228 fps=0.9 q=43.2 size=     256KiB time=00:00:03.76 bitrate= 556.9kbits/s speed=0.0153x elapsed=0:04:05.70    \nframe=  229 fps=0.9 q=43.0 size=     256KiB time=00:00:03.78 bitrate= 554.4kbits/s speed=0.0154x elapsed=0:04:06.22    \nframe=  229 fps=0.9 q=43.0 size=     256KiB time=00:00:03.78 bitrate= 554.4kbits/s speed=0.0153x elapsed=0:04:06.74    \nframe=  229 fps=0.9 q=43.0 size=     256KiB time=00:00:03.78 bitrate= 554.4kbits/s speed=0.0153x elapsed=0:04:07.29    \nframe=  230 fps=0.9 q=43.9 size=     256KiB time=00:00:03.80 bitrate= 552.0kbits/s speed=0.0153x elapsed=0:04:07.81    \nframe=  230 fps=0.9 q=43.9 size=     256KiB time=00:00:03.80 bitrate= 552.0kbits/s speed=0.0153x elapsed=0:04:08.33    \nframe=  232 fps=0.9 q=41.9 size=     256KiB time=00:00:03.83 bitrate= 547.2kbits/s speed=0.0154x elapsed=0:04:08.86    \nframe=  232 fps=0.9 q=41.9 size=     256KiB time=00:00:03.83 bitrate= 547.2kbits/s speed=0.0154x elapsed=0:04:09.38    \nframe=  233 fps=0.9 q=43.7 size=     256KiB time=00:00:03.85 bitrate= 544.8kbits/s speed=0.0154x elapsed=0:04:09.92    \nframe=  233 fps=0.9 q=43.7 size=     256KiB time=00:00:03.85 bitrate= 544.8kbits/s speed=0.0154x elapsed=0:04:10.43    \nframe=  233 fps=0.9 q=43.7 size=     256KiB time=00:00:03.85 bitrate= 544.8kbits/s speed=0.0153x elapsed=0:04:10.95    \nframe=  233 fps=0.9 q=43.7 size=     256KiB time=00:00:03.85 bitrate= 544.8kbits/s speed=0.0153x elapsed=0:04:11.53    \nframe=  234 fps=0.9 q=43.6 size=     256KiB time=00:00:03.86 bitrate= 542.5kbits/s speed=0.0153x elapsed=0:04:12.08    \nframe=  234 fps=0.9 q=43.6 size=     256KiB time=00:00:03.86 bitrate= 542.5kbits/s speed=0.0153x elapsed=0:04:12.64    \nframe=  234 fps=0.9 q=43.6 size=     256KiB time=00:00:03.86 bitrate= 542.5kbits/s speed=0.0153x elapsed=0:04:13.24    \nframe=  234 fps=0.9 q=43.6 size=     256KiB time=00:00:03.86 bitrate= 542.5kbits/s speed=0.0152x elapsed=0:04:13.82    \nframe=  234 fps=0.9 q=43.6 size=     256KiB time=00:00:03.86 bitrate= 542.5kbits/s speed=0.0152x elapsed=0:04:14.42    \nframe=  234 fps=0.9 q=43.6 size=     256KiB time=00:00:03.86 bitrate= 542.5kbits/s speed=0.0152x elapsed=0:04:15.06    \nframe=  234 fps=0.9 q=43.6 size=     256KiB time=00:00:03.86 bitrate= 542.5kbits/s speed=0.0151x elapsed=0:04:15.62    \nframe=  234 fps=0.9 q=43.6 size=     256KiB time=00:00:03.86 bitrate= 542.5kbits/s speed=0.0151x elapsed=0:04:16.18    \nframe=  234 fps=0.9 q=43.6 size=     256KiB time=00:00:03.86 bitrate= 542.5kbits/s speed=0.0151x elapsed=0:04:16.74    \nframe=  235 fps=0.9 q=44.0 size=     256KiB time=00:00:03.88 bitrate= 540.1kbits/s speed=0.0151x elapsed=0:04:17.33    \nframe=  235 fps=0.9 q=44.0 size=     256KiB time=00:00:03.88 bitrate= 540.1kbits/s speed=0.0151x elapsed=0:04:17.86    \nframe=  235 fps=0.9 q=44.0 size=     256KiB time=00:00:03.88 bitrate= 540.1kbits/s speed=0.015x elapsed=0:04:18.38    \nframe=  236 fps=0.9 q=37.8 size=     256KiB time=00:00:03.90 bitrate= 537.8kbits/s speed=0.0151x elapsed=0:04:18.89    \nframe=  237 fps=0.9 q=42.3 size=     256KiB time=00:00:03.91 bitrate= 535.5kbits/s speed=0.0151x elapsed=0:04:19.40    \nframe=  238 fps=0.9 q=43.7 size=     256KiB time=00:00:03.93 bitrate= 533.3kbits/s speed=0.0151x elapsed=0:04:19.93    \nframe=  238 fps=0.9 q=43.7 size=     256KiB time=00:00:03.93 bitrate= 533.3kbits/s speed=0.0151x elapsed=0:04:20.48    \nframe=  238 fps=0.9 q=43.7 size=     256KiB time=00:00:03.93 bitrate= 533.3kbits/s speed=0.0151x elapsed=0:04:21.03    \nframe=  238 fps=0.9 q=43.7 size=     256KiB time=00:00:03.93 bitrate= 533.3kbits/s speed=0.015x elapsed=0:04:21.55    \nframe=  239 fps=0.9 q=43.3 size=     256KiB time=00:00:03.95 bitrate= 531.0kbits/s speed=0.0151x elapsed=0:04:22.08    \nframe=  240 fps=0.9 q=44.0 size=     256KiB time=00:00:03.96 bitrate= 528.8kbits/s speed=0.0151x elapsed=0:04:22.62    \nframe=  240 fps=0.9 q=44.0 size=     256KiB time=00:00:03.96 bitrate= 528.8kbits/s speed=0.0151x elapsed=0:04:23.15    \nframe=  240 fps=0.9 q=44.0 size=     256KiB time=00:00:03.96 bitrate= 528.8kbits/s speed=0.015x elapsed=0:04:23.67    \nframe=  242 fps=0.9 q=42.3 size=     256KiB time=00:00:04.00 bitrate= 524.4kbits/s speed=0.0151x elapsed=0:04:24.18    \nframe=  242 fps=0.9 q=42.3 size=     256KiB time=00:00:04.00 bitrate= 524.4kbits/s speed=0.0151x elapsed=0:04:24.73    \nframe=  243 fps=0.9 q=43.9 size=     256KiB time=00:00:04.01 bitrate= 522.2kbits/s speed=0.0151x elapsed=0:04:25.26    \nframe=  243 fps=0.9 q=43.9 size=     256KiB time=00:00:04.01 bitrate= 522.2kbits/s speed=0.0151x elapsed=0:04:25.77    \nframe=  244 fps=0.9 q=43.5 size=     256KiB time=00:00:04.03 bitrate= 520.0kbits/s speed=0.0151x elapsed=0:04:26.28    \nframe=  244 fps=0.9 q=43.5 size=     256KiB time=00:00:04.03 bitrate= 520.0kbits/s speed=0.0151x elapsed=0:04:26.80    \nframe=  244 fps=0.9 q=43.5 size=     256KiB time=00:00:04.03 bitrate= 520.0kbits/s speed=0.0151x elapsed=0:04:27.34    \nframe=  245 fps=0.9 q=44.0 size=     256KiB time=00:00:04.05 bitrate= 517.9kbits/s speed=0.0151x elapsed=0:04:27.88    \nframe=  245 fps=0.9 q=44.0 size=     256KiB time=00:00:04.05 bitrate= 517.9kbits/s speed=0.0151x elapsed=0:04:28.41    \nframe=  246 fps=0.9 q=38.0 size=     256KiB time=00:00:04.06 bitrate= 515.8kbits/s speed=0.0151x elapsed=0:04:28.94    \nframe=  246 fps=0.9 q=38.0 size=     256KiB time=00:00:04.06 bitrate= 515.8kbits/s speed=0.0151x elapsed=0:04:29.47    \nframe=  248 fps=0.9 q=43.9 size=     256KiB time=00:00:04.10 bitrate= 511.6kbits/s speed=0.0152x elapsed=0:04:30.00    \nframe=  248 fps=0.9 q=43.9 size=     256KiB time=00:00:04.10 bitrate= 511.6kbits/s speed=0.0152x elapsed=0:04:30.53    \nframe=  249 fps=0.9 q=43.9 size=     256KiB time=00:00:04.11 bitrate= 509.5kbits/s speed=0.0152x elapsed=0:04:31.05    \nframe=  249 fps=0.9 q=43.9 size=     256KiB time=00:00:04.11 bitrate= 509.5kbits/s speed=0.0152x elapsed=0:04:31.59    \nframe=  250 fps=0.9 q=44.0 size=     256KiB time=00:00:04.13 bitrate= 507.5kbits/s speed=0.0152x elapsed=0:04:32.11    \nframe=  250 fps=0.9 q=44.0 size=     256KiB time=00:00:04.13 bitrate= 507.5kbits/s speed=0.0152x elapsed=0:04:32.64    \nframe=  250 fps=0.9 q=44.0 size=     256KiB time=00:00:04.13 bitrate= 507.5kbits/s speed=0.0151x elapsed=0:04:33.16    \nframe=  250 fps=0.9 q=44.0 size=     256KiB time=00:00:04.13 bitrate= 507.5kbits/s speed=0.0151x elapsed=0:04:33.69    \nframe=  250 fps=0.9 q=44.0 size=     256KiB time=00:00:04.13 bitrate= 507.5kbits/s speed=0.0151x elapsed=0:04:34.21    \nframe=  251 fps=0.9 q=35.1 size=     256KiB time=00:00:04.15 bitrate= 505.4kbits/s speed=0.0151x elapsed=0:04:34.73    \nframe=  252 fps=0.9 q=38.2 size=     256KiB time=00:00:04.16 bitrate= 503.4kbits/s speed=0.0151x elapsed=0:04:35.28    \nframe=  253 fps=0.9 q=43.6 size=     256KiB time=00:00:04.18 bitrate= 501.4kbits/s speed=0.0152x elapsed=0:04:35.83    \nframe=  254 fps=0.9 q=43.9 size=     256KiB time=00:00:04.20 bitrate= 499.4kbits/s speed=0.0152x elapsed=0:04:36.34    \nframe=  254 fps=0.9 q=43.9 size=     256KiB time=00:00:04.20 bitrate= 499.4kbits/s speed=0.0152x elapsed=0:04:36.87    \nframe=  254 fps=0.9 q=43.9 size=     256KiB time=00:00:04.20 bitrate= 499.4kbits/s speed=0.0151x elapsed=0:04:37.39    \nframe=  255 fps=0.9 q=42.9 size=     256KiB time=00:00:04.21 bitrate= 497.4kbits/s speed=0.0152x elapsed=0:04:37.92    \nframe=  255 fps=0.9 q=42.9 size=     256KiB time=00:00:04.21 bitrate= 497.4kbits/s speed=0.0151x elapsed=0:04:38.45    \nframe=  256 fps=0.9 q=43.0 size=     256KiB time=00:00:04.23 bitrate= 495.5kbits/s speed=0.0152x elapsed=0:04:38.96    \nframe=  257 fps=0.9 q=37.2 size=     256KiB time=00:00:04.25 bitrate= 493.5kbits/s speed=0.0152x elapsed=0:04:39.50    \nframe=  257 fps=0.9 q=37.2 size=     256KiB time=00:00:04.25 bitrate= 493.5kbits/s speed=0.0152x elapsed=0:04:40.01    \nframe=  257 fps=0.9 q=37.2 size=     256KiB time=00:00:04.25 bitrate= 493.5kbits/s speed=0.0151x elapsed=0:04:40.54    \nframe=  258 fps=0.9 q=42.5 size=     512KiB time=00:00:04.26 bitrate= 983.1kbits/s speed=0.0152x elapsed=0:04:41.09    \nframe=  259 fps=0.9 q=42.8 size=     512KiB time=00:00:04.28 bitrate= 979.3kbits/s speed=0.0152x elapsed=0:04:41.61    \nframe=  259 fps=0.9 q=42.8 size=     512KiB time=00:00:04.28 bitrate= 979.3kbits/s speed=0.0152x elapsed=0:04:42.14    \nframe=  259 fps=0.9 q=42.8 size=     512KiB time=00:00:04.28 bitrate= 979.3kbits/s speed=0.0152x elapsed=0:04:42.65    \nframe=  260 fps=0.9 q=42.7 size=     512KiB time=00:00:04.30 bitrate= 975.5kbits/s speed=0.0152x elapsed=0:04:43.18    \nframe=  260 fps=0.9 q=42.7 size=     512KiB time=00:00:04.30 bitrate= 975.5kbits/s speed=0.0152x elapsed=0:04:43.70    \nframe=  261 fps=0.9 q=43.0 size=     512KiB time=00:00:04.31 bitrate= 971.7kbits/s speed=0.0152x elapsed=0:04:44.24    \nframe=  261 fps=0.9 q=43.0 size=     512KiB time=00:00:04.31 bitrate= 971.7kbits/s speed=0.0152x elapsed=0:04:44.76    \nframe=  262 fps=0.9 q=37.2 size=     512KiB time=00:00:04.33 bitrate= 968.0kbits/s speed=0.0152x elapsed=0:04:45.30    \nframe=  263 fps=0.9 q=41.5 size=     512KiB time=00:00:04.35 bitrate= 964.3kbits/s speed=0.0152x elapsed=0:04:45.81    \nframe=  264 fps=0.9 q=42.7 size=     512KiB time=00:00:04.36 bitrate= 960.6kbits/s speed=0.0152x elapsed=0:04:46.34    \nframe=  264 fps=0.9 q=42.7 size=     512KiB time=00:00:04.36 bitrate= 960.6kbits/s speed=0.0152x elapsed=0:04:46.85    \nframe=  264 fps=0.9 q=42.7 size=     512KiB time=00:00:04.36 bitrate= 960.6kbits/s speed=0.0152x elapsed=0:04:47.38    \nframe=  264 fps=0.9 q=42.7 size=     512KiB time=00:00:04.36 bitrate= 960.6kbits/s speed=0.0152x elapsed=0:04:47.94    \nframe=  264 fps=0.9 q=42.7 size=     512KiB time=00:00:04.36 bitrate= 960.6kbits/s speed=0.0151x elapsed=0:04:48.48    \nframe=  265 fps=0.9 q=42.7 size=     512KiB time=00:00:04.38 bitrate= 957.0kbits/s speed=0.0152x elapsed=0:04:49.00    \nframe=  266 fps=0.9 q=43.0 size=     512KiB time=00:00:04.40 bitrate= 953.3kbits/s speed=0.0152x elapsed=0:04:49.52    \nframe=  267 fps=0.9 q=37.5 size=     512KiB time=00:00:04.41 bitrate= 949.7kbits/s speed=0.0152x elapsed=0:04:50.06    \nframe=  268 fps=0.9 q=41.6 size=     512KiB time=00:00:04.43 bitrate= 946.2kbits/s speed=0.0153x elapsed=0:04:50.59    \nframe=  268 fps=0.9 q=41.6 size=     512KiB time=00:00:04.43 bitrate= 946.2kbits/s speed=0.0152x elapsed=0:04:51.11    \nframe=  268 fps=0.9 q=41.6 size=     512KiB time=00:00:04.43 bitrate= 946.2kbits/s speed=0.0152x elapsed=0:04:51.67    \nframe=  269 fps=0.9 q=42.4 size=     512KiB time=00:00:04.45 bitrate= 942.6kbits/s speed=0.0152x elapsed=0:04:52.22    \nframe=  269 fps=0.9 q=42.4 size=     512KiB time=00:00:04.45 bitrate= 942.6kbits/s speed=0.0152x elapsed=0:04:52.74    \nframe=  270 fps=0.9 q=42.6 size=     512KiB time=00:00:04.46 bitrate= 939.1kbits/s speed=0.0152x elapsed=0:04:53.29    \nframe=  270 fps=0.9 q=42.6 size=     512KiB time=00:00:04.46 bitrate= 939.1kbits/s speed=0.0152x elapsed=0:04:53.81    \nframe=  270 fps=0.9 q=42.6 size=     512KiB time=00:00:04.46 bitrate= 939.1kbits/s speed=0.0152x elapsed=0:04:54.34    \nframe=  270 fps=0.9 q=42.6 size=     512KiB time=00:00:04.46 bitrate= 939.1kbits/s speed=0.0151x elapsed=0:04:54.87    \nframe=  271 fps=0.9 q=42.8 size=     512KiB time=00:00:04.48 bitrate= 935.6kbits/s speed=0.0152x elapsed=0:04:55.41    \nframe=  272 fps=0.9 q=37.2 size=     512KiB time=00:00:04.50 bitrate= 932.1kbits/s speed=0.0152x elapsed=0:04:55.93    \nframe=  272 fps=0.9 q=37.2 size=     512KiB time=00:00:04.50 bitrate= 932.1kbits/s speed=0.0152x elapsed=0:04:56.46    \nframe=  272 fps=0.9 q=37.2 size=     512KiB time=00:00:04.50 bitrate= 932.1kbits/s speed=0.0152x elapsed=0:04:57.01    \nframe=  273 fps=0.9 q=41.5 size=     512KiB time=00:00:04.51 bitrate= 928.7kbits/s speed=0.0152x elapsed=0:04:57.52    \nframe=  273 fps=0.9 q=41.5 size=     512KiB time=00:00:04.51 bitrate= 928.7kbits/s speed=0.0152x elapsed=0:04:58.05    \nframe=  273 fps=0.9 q=41.5 size=     512KiB time=00:00:04.51 bitrate= 928.7kbits/s speed=0.0151x elapsed=0:04:58.58    \nframe=  273 fps=0.9 q=41.5 size=     512KiB time=00:00:04.51 bitrate= 928.7kbits/s speed=0.0151x elapsed=0:04:59.10    \nframe=  274 fps=0.9 q=42.9 size=     512KiB time=00:00:04.53 bitrate= 925.3kbits/s speed=0.0151x elapsed=0:04:59.62    \nframe=  274 fps=0.9 q=42.9 size=     512KiB time=00:00:04.53 bitrate= 925.3kbits/s speed=0.0151x elapsed=0:05:00.14    \nframe=  274 fps=0.9 q=42.9 size=     512KiB time=00:00:04.53 bitrate= 925.3kbits/s speed=0.0151x elapsed=0:05:00.68    \nframe=  275 fps=0.9 q=42.6 size=     512KiB time=00:00:04.55 bitrate= 921.9kbits/s speed=0.0151x elapsed=0:05:01.21    \nframe=  275 fps=0.9 q=42.6 size=     512KiB time=00:00:04.55 bitrate= 921.9kbits/s speed=0.0151x elapsed=0:05:01.75    \nframe=  275 fps=0.9 q=42.6 size=     512KiB time=00:00:04.55 bitrate= 921.9kbits/s speed=0.0151x elapsed=0:05:02.29    \nframe=  276 fps=0.9 q=42.8 size=     512KiB time=00:00:04.56 bitrate= 918.5kbits/s speed=0.0151x elapsed=0:05:02.79    \nframe=  277 fps=0.9 q=36.8 size=     512KiB time=00:00:04.58 bitrate= 915.2kbits/s speed=0.0151x elapsed=0:05:03.32    \nframe=  277 fps=0.9 q=36.8 size=     512KiB time=00:00:04.58 bitrate= 915.2kbits/s speed=0.0151x elapsed=0:05:03.83    \nframe=  278 fps=0.9 q=41.1 size=     512KiB time=00:00:04.60 bitrate= 911.9kbits/s speed=0.0151x elapsed=0:05:04.37    \nframe=  278 fps=0.9 q=41.1 size=     512KiB time=00:00:04.60 bitrate= 911.9kbits/s speed=0.0151x elapsed=0:05:04.89    \nframe=  278 fps=0.9 q=41.1 size=     512KiB time=00:00:04.60 bitrate= 911.9kbits/s speed=0.0151x elapsed=0:05:05.40    \nframe=  278 fps=0.9 q=41.1 size=     512KiB time=00:00:04.60 bitrate= 911.9kbits/s speed=0.015x elapsed=0:05:05.94    \nframe=  279 fps=0.9 q=42.8 size=     512KiB time=00:00:04.61 bitrate= 908.6kbits/s speed=0.0151x elapsed=0:05:06.48    \nframe=  279 fps=0.9 q=42.8 size=     512KiB time=00:00:04.61 bitrate= 908.6kbits/s speed=0.015x elapsed=0:05:07.03    \nframe=  280 fps=0.9 q=42.7 size=     512KiB time=00:00:04.63 bitrate= 905.3kbits/s speed=0.0151x elapsed=0:05:07.55    \nframe=  281 fps=0.9 q=37.0 size=     512KiB time=00:00:04.65 bitrate= 902.1kbits/s speed=0.0151x elapsed=0:05:08.09    \nframe=  281 fps=0.9 q=37.0 size=     512KiB time=00:00:04.65 bitrate= 902.1kbits/s speed=0.0151x elapsed=0:05:08.62    \nframe=  282 fps=0.9 q=40.3 size=     512KiB time=00:00:04.66 bitrate= 898.9kbits/s speed=0.0151x elapsed=0:05:09.14    \nframe=  282 fps=0.9 q=40.3 size=     512KiB time=00:00:04.66 bitrate= 898.9kbits/s speed=0.0151x elapsed=0:05:09.67    \nframe=  282 fps=0.9 q=40.3 size=     512KiB time=00:00:04.66 bitrate= 898.9kbits/s speed=0.015x elapsed=0:05:10.20    \nframe=  283 fps=0.9 q=41.7 size=     512KiB time=00:00:04.68 bitrate= 895.7kbits/s speed=0.0151x elapsed=0:05:10.73    \nframe=  283 fps=0.9 q=41.7 size=     512KiB time=00:00:04.68 bitrate= 895.7kbits/s speed=0.015x elapsed=0:05:11.28    \nframe=  284 fps=0.9 q=41.4 size=     512KiB time=00:00:04.70 bitrate= 892.5kbits/s speed=0.0151x elapsed=0:05:11.80    \nframe=  284 fps=0.9 q=41.4 size=     512KiB time=00:00:04.70 bitrate= 892.5kbits/s speed=0.015x elapsed=0:05:12.33    \nframe=  284 fps=0.9 q=41.4 size=     512KiB time=00:00:04.70 bitrate= 892.5kbits/s speed=0.015x elapsed=0:05:12.84    \nframe=  284 fps=0.9 q=41.4 size=     512KiB time=00:00:04.70 bitrate= 892.5kbits/s speed=0.015x elapsed=0:05:13.38    \nframe=  285 fps=0.9 q=41.7 size=     512KiB time=00:00:04.71 bitrate= 889.3kbits/s speed=0.015x elapsed=0:05:13.89    \nframe=  285 fps=0.9 q=41.7 size=     512KiB time=00:00:04.71 bitrate= 889.3kbits/s speed=0.015x elapsed=0:05:14.40    \nframe=  285 fps=0.9 q=41.7 size=     512KiB time=00:00:04.71 bitrate= 889.3kbits/s speed=0.015x elapsed=0:05:14.95    \nframe=  285 fps=0.9 q=41.7 size=     512KiB time=00:00:04.71 bitrate= 889.3kbits/s speed=0.015x elapsed=0:05:15.48    \nframe=  285 fps=0.9 q=41.7 size=     512KiB time=00:00:04.71 bitrate= 889.3kbits/s speed=0.0149x elapsed=0:05:16.01    \nframe=  287 fps=0.9 q=39.6 size=     512KiB time=00:00:04.75 bitrate= 883.1kbits/s speed=0.015x elapsed=0:05:16.55    \nframe=  287 fps=0.9 q=39.6 size=     512KiB time=00:00:04.75 bitrate= 883.1kbits/s speed=0.015x elapsed=0:05:17.07    \nframe=  288 fps=0.9 q=40.6 size=     512KiB time=00:00:04.76 bitrate= 880.0kbits/s speed=0.015x elapsed=0:05:17.57    \nframe=  289 fps=0.9 q=40.6 size=     512KiB time=00:00:04.78 bitrate= 876.9kbits/s speed=0.015x elapsed=0:05:18.10    \nframe=  289 fps=0.9 q=40.6 size=     512KiB time=00:00:04.78 bitrate= 876.9kbits/s speed=0.015x elapsed=0:05:18.64    \nframe=  290 fps=0.9 q=40.7 size=     512KiB time=00:00:04.80 bitrate= 873.9kbits/s speed=0.015x elapsed=0:05:19.15    \nframe=  290 fps=0.9 q=40.7 size=     512KiB time=00:00:04.80 bitrate= 873.9kbits/s speed=0.015x elapsed=0:05:19.71    \nframe=  290 fps=0.9 q=40.7 size=     512KiB time=00:00:04.80 bitrate= 873.9kbits/s speed=0.015x elapsed=0:05:20.28    \nframe=  290 fps=0.9 q=40.7 size=     512KiB time=00:00:04.80 bitrate= 873.9kbits/s speed=0.015x elapsed=0:05:20.82    \nframe=  290 fps=0.9 q=40.7 size=     512KiB time=00:00:04.80 bitrate= 873.9kbits/s speed=0.0149x elapsed=0:05:21.38    \nframe=  290 fps=0.9 q=40.7 size=     512KiB time=00:00:04.80 bitrate= 873.9kbits/s speed=0.0149x elapsed=0:05:21.94    \nframe=  290 fps=0.9 q=40.7 size=     512KiB time=00:00:04.80 bitrate= 873.9kbits/s speed=0.0149x elapsed=0:05:22.51    \nframe=  291 fps=0.9 q=36.7 size=     512KiB time=00:00:04.80 bitrate= 873.9kbits/s speed=0.0149x elapsed=0:05:23.06    \nframe=  291 fps=0.9 q=36.7 size=     512KiB time=00:00:04.81 bitrate= 870.9kbits/s speed=0.0149x elapsed=0:05:23.60    \nframe=  292 fps=0.9 q=39.1 size=     512KiB time=00:00:04.83 bitrate= 867.9kbits/s speed=0.0149x elapsed=0:05:24.13    \nframe=  293 fps=0.9 q=39.6 size=     512KiB time=00:00:04.85 bitrate= 864.9kbits/s speed=0.0149x elapsed=0:05:24.65    \nframe=  293 fps=0.9 q=39.6 size=     512KiB time=00:00:04.85 bitrate= 864.9kbits/s speed=0.0149x elapsed=0:05:25.18    \nframe=  294 fps=0.9 q=39.3 size=     512KiB time=00:00:04.86 bitrate= 861.9kbits/s speed=0.0149x elapsed=0:05:25.69    \nframe=  295 fps=0.9 q=40.6 size=     512KiB time=00:00:04.88 bitrate= 859.0kbits/s speed=0.015x elapsed=0:05:26.20    \nframe=  297 fps=0.9 q=35.7 size=     512KiB time=00:00:04.91 bitrate= 853.2kbits/s speed=0.015x elapsed=0:05:26.72    \n[mp4 @ 000002a9ac221300] Starting second pass: moving the moov atom to the beginning of the file\n[out#0/mp4 @ 000002a9ac21acc0] video:602KiB audio:0KiB subtitle:0KiB other streams:0KiB global headers:2KiB muxing overhead: 1.105485%\nframe=  300 fps=0.9 q=40.6 Lsize=     608KiB time=00:00:04.96 bitrate=1003.2kbits/s speed=0.0152x elapsed=0:05:27.15    \nx265 [info]: frame I:      2, Avg QP:41.24  kb/s: 6258.48 \nx265 [info]: frame P:     60, Avg QP:38.77  kb/s: 3259.74 \nx265 [info]: frame B:    238, Avg QP:43.38  kb/s: 365.60  \nx265 [info]: Weighted P-Frames: Y:0.0% UV:0.0%\n\nencoded 300 frames in 326.64s (0.92 fps), 983.71 kb/s, Avg QP:42.44\n",
  "seconds": 327.645574092865,
  "probe_out": {}
}